<svg width="46" height="38" viewBox="0 0 46 38" xmlns="http://www.w3.org/2000/svg"><title>Group 8</title><g fill="#81CFD3" fill-rule="evenodd"><path d="M11.8 28.19c3.322 0 4.86-2.673 4.86-5.913 0-3.242-1.538-5.996-4.86-5.996s-5.063 2.755-5.063 5.997c0 3.28 1.7 5.913 5.063 5.913zM6.737 4.13v9.76c1.782-1.984 4.01-2.956 6.643-2.956 6.076 0 9.844 4.86 9.844 11.302 0 6.4-3.768 11.302-9.844 11.302-2.633 0-4.86-.973-6.643-2.957v2.472H.54V4.13h6.197zM32.746 34.505L29.18 30.9l8.792-8.75-8.79-8.79 3.564-3.565L45.142 22.15"/></g></svg>