<svg width="161" height="122" viewBox="0 0 161 122" xmlns="http://www.w3.org/2000/svg"><title>Cake</title><g fill="none" fill-rule="evenodd"><path d="M591.92-244.084l-20.015-21.212c2.095-2.528 3.554-5.594 4.168-8.95h29.31c-.84 11.67-5.81 22.206-13.462 30.162zm-31.59 14.846v-29.283c2.204-.403 4.275-1.17 6.157-2.244l20.194 21.4c-7.385 5.747-16.46 9.414-26.35 10.126zm-7.126-36.512l7.158-7.69c1.484-1.593 1.88-3.912 1.01-5.908-.87-1.994-2.84-3.284-5.018-3.284h-11.12c1.906-4.505 6.374-7.674 11.57-7.674 6.92 0 12.55 5.624 12.55 12.537 0 6.912-5.63 12.536-12.55 12.536-1.25 0-2.454-.176-3.6-.516zm.07 36.513c-9.205-.662-17.964-3.897-25.358-9.344l20.142-21.64c1.642.82 3.39 1.397 5.217 1.72v29.263zm-70.114 28.39c-16.002 5.74-41.72 10.238-64.9 4.934-12.907-2.954-21.424-7.743-30.443-12.814-8.258-4.644-16.8-9.447-28.735-12.588-11.777-3.098-33.973-6.088-62.524 3.08-.057-.072-.1-.15-.162-.22l-51.207-57.13h307.535l-69.565 74.737zM386.413-96.912L284.71-206.174c4.81-2.13 9.462-3.89 13.946-5.333L375.844-127c.696.76 1.65 1.148 2.607 1.148.85 0 1.7-.303 2.377-.92 1.44-1.312 1.542-3.54.227-4.98l-74.846-81.94c23.223-5.942 41.14-3.423 51.077-.807 11.06 2.91 18.838 7.285 27.072 11.914 9.058 5.094 18.426 10.362 32.327 13.542 7.768 1.777 15.792 2.524 23.676 2.524 11.904 0 23.468-1.71 33.32-4.143L386.413-96.91zm-166.31-178.674h15.614l53.665 59.87c-3.177 1.208-6.423 2.572-9.736 4.1l-59.543-63.97zm299.164-33.184l20.827 20.806c-1.003 1.635-1.77 3.43-2.264 5.33h-29.502c.986-9.872 4.928-18.887 10.94-26.136zm34.008-17.534v29.283c-3.152.575-6.037 1.905-8.47 3.797l-20.66-20.637c7.83-7.075 17.967-11.64 29.13-12.442zm7.055 0c10.785.776 20.604 5.068 28.317 11.74l-20.713 20.69c-2.242-1.552-4.82-2.64-7.604-3.147V-326.3zm45.054 45.01h-29.31c-.51-2.782-1.6-5.358-3.152-7.598l20.713-20.69c6.676 7.705 10.973 17.514 11.75 28.287zm-48.58-52.198c-29.116 0-53.08 22.403-55.555 50.858H238.87l-58.783-65.58h-58.71c-1.95 0-3.528 1.577-3.528 3.523 0 1.948 1.578 3.525 3.526 3.525h55.56l52.465 58.533h-12.926c-2.178 0-4.15 1.29-5.02 3.284-.868 1.996-.472 4.315 1.012 5.908l169.94 182.573c.146.157.32.282.48.42V32.134h-56.11c-1.95 0-3.53 1.577-3.53 3.524 0 1.945 1.58 3.522 3.53 3.522h119.752c1.95 0 3.528-1.577 3.528-3.523 0-1.948-1.58-3.525-3.528-3.525h-56.586V-90.448c.162-.138.335-.264.48-.42l96.75-103.94c.22-.084.452-.165.668-.25l-.128-.33 35.37-38c9.664 7.342 21.443 11.338 33.72 11.338 30.756 0 55.78-24.996 55.78-55.72s-25.024-55.72-55.78-55.72z" fill="#504F64"/><path d="M156.904 89.09c0 15.82-34.293 28.647-76.597 28.647-42.303 0-76.597-12.827-76.597-28.647 0-15.82 34.294-28.646 76.597-28.646 42.304 0 76.597 12.826 76.597 28.646" fill="#81CFD3"/><path d="M156.904 78.198c0 15.82-34.293 28.646-76.597 28.646-42.303 0-76.597-12.826-76.597-28.646S38.004 49.55 80.307 49.55c42.304 0 76.597 12.828 76.597 28.648" fill="#EAF5F6"/><path d="M118.26 29.164v45.094L44.657 89.064V43.97L79.6 16.898s19.28-12.922 38.66 12.266" fill="#EAC8C2"/><path fill="#ED533C" d="M45.342 63.347v7.65l72.233-15.05V48.3M105.856 13.666c0 5.25-4.26 9.506-9.515 9.506-5.254 0-9.514-4.257-9.514-9.506 0-5.25 4.26-9.506 9.515-9.506 5.257 0 9.516 4.257 9.516 9.506"/><path d="M80.307 103.32c-43.06 0-73.07-13.24-73.07-25.122 0-7.785 12.895-16.15 33.892-20.993v36.16l80.658-16.222v-19.38c19.63 4.91 31.59 12.94 31.59 20.435 0 11.883-30.01 25.12-73.07 25.12zm72.22-10.727c-5.14 10.837-33.36 21.62-72.22 21.62s-67.08-10.783-72.22-21.62c12.705 10.715 39.592 17.774 72.22 17.774s59.515-7.06 72.22-17.775zM48.184 76.14l66.55-13.386v8.62L48.183 84.76v-8.62zm0-13.018l66.55-13.158v5.6L48.183 68.95v-5.828zm0-16.267l66.55-13.386v9.31l-66.55 13.158v-9.083zM81.637 19.78c.302-.19 1.218-.72 2.61-1.26 1.932 4.786 6.62 8.176 12.094 8.176 3.96 0 7.505-1.78 9.9-4.568 1.778 1.274 3.598 2.842 5.443 4.765L58.698 37.55l22.94-17.77zM96.34 7.684c3.303 0 5.988 2.683 5.988 5.982 0 3.298-2.685 5.982-5.987 5.982s-5.987-2.684-5.987-5.982c0-3.3 2.685-5.982 5.988-5.982zm63.026 75.963c.69-1.764 1.066-3.582 1.066-5.45 0-12.152-15.145-22.316-38.644-27.795V27.968l-.73-.95c-3.965-5.153-7.96-8.816-11.837-11.396.097-.64.163-1.29.163-1.956 0-7.183-5.85-13.03-13.042-13.03-6.42 0-11.76 4.665-12.833 10.777-3.615 1.1-5.804 2.514-5.873 2.56L41.13 42.243v7.637C16.316 55.22.18 65.65.18 78.198c0 1.867.375 3.685 1.066 5.45l-.002-.004C.556 85.407.182 87.224.182 89.09c0 18.34 34.446 32.17 80.125 32.17 45.678 0 80.125-13.83 80.125-32.17 0-1.866-.376-3.683-1.065-5.446v.003z" fill="#504F64"/></g></svg>