<svg width="507" height="389" viewBox="0 0 507 389" xmlns="http://www.w3.org/2000/svg"><title>Group 8</title><g fill="none" fill-rule="evenodd"><path d="M447.47 6.154c-32.424 0-58.71 26.258-58.71 58.647 0 2.15.124 4.27.35 6.36l50.243 1.08-29.13 37.893c10.134 8.32 23.105 13.316 37.247 13.316 32.423 0 58.708-26.26 58.708-58.65 0-32.388-26.285-58.646-58.708-58.646" fill="#E1D994"/><path d="M367.57 151.966c-4.053 1.395-8.467 2.627-13.1 3.666l10.036-12.55c-11.958 4.116-26.336 6.477-39.446 6.477-7.495 0-14.526-.74-20.896-2.197-12.078-2.764-20.235-7.35-28.872-12.21-8.582-4.824-17.456-9.814-30.12-13.147-8.16-2.147-16.988-3.236-26.237-3.236-19.242 0-38.86 4.648-58.328 13.816l-16.34 3.874 122.15 129.29 28.998-36.266 72.155-77.518z" fill="#ED533C"/><path fill="#81CFD3" d="M359.076 135.253l-5.168-4.8 38.87-41.758 5.17 4.8M343.655 131.24l-5.168-4.8 38.87-41.76 5.17 4.798M277.43 193.606l13.8-13.786 13.8 13.786-13.8 13.786M248.284 163.885l18.822-5.15 5.156 18.803-18.822 5.15"/><path d="M291.23 202.408l-8.81-8.803 8.81-8.802 8.81 8.802-8.81 8.803zm-18.788-8.803l18.788 18.77 18.788-18.77-18.788-18.768-18.788 18.768zM255.91 178.36l-3.293-12.007 12.02-3.288 3.292 12.005-12.02 3.29zm13.666-23.954l-25.626 7.012 7.02 25.6 25.626-7.014-7.02-25.598z" fill="#504F64"/><path d="M474.92 104.916l-20.015-21.212c2.095-2.528 3.554-5.594 4.168-8.95h29.31c-.84 11.67-5.81 22.206-13.462 30.162zm-31.59 14.846V90.48c2.204-.403 4.275-1.17 6.157-2.244l20.194 21.4c-7.385 5.747-16.46 9.414-26.35 10.126zm-7.126-36.512l7.158-7.69c1.484-1.593 1.88-3.912 1.01-5.908-.87-1.994-2.84-3.284-5.018-3.284h-11.12c1.906-4.505 6.374-7.674 11.57-7.674 6.92 0 12.55 5.624 12.55 12.537 0 6.912-5.63 12.536-12.55 12.536-1.25 0-2.454-.176-3.6-.516zm.07 36.513c-9.205-.662-17.964-3.897-25.358-9.344l20.142-21.64c1.642.82 3.39 1.397 5.217 1.72v29.263zm-70.114 28.39c-16.002 5.74-41.72 10.238-64.9 4.934-12.907-2.954-21.424-7.743-30.443-12.814-8.258-4.644-16.8-9.447-28.735-12.588-11.777-3.098-33.973-6.088-62.524 3.08-.057-.072-.1-.15-.162-.22l-51.207-57.13h307.535l-69.565 74.737zm-96.747 103.936L167.71 142.826c4.81-2.13 9.462-3.89 13.946-5.333L258.844 222c.696.76 1.65 1.148 2.607 1.148.85 0 1.7-.303 2.377-.92 1.44-1.312 1.542-3.54.227-4.98l-74.846-81.94c23.223-5.942 41.14-3.423 51.077-.807 11.06 2.91 18.838 7.285 27.072 11.914 9.058 5.094 18.426 10.362 32.327 13.542 7.768 1.777 15.792 2.524 23.676 2.524 11.904 0 23.468-1.71 33.32-4.143l-87.267 93.752zM103.103 73.415h15.614l53.665 59.87c-3.177 1.208-6.423 2.572-9.736 4.1l-59.543-63.97zm299.164-33.184l20.827 20.806c-1.003 1.635-1.77 3.43-2.264 5.33h-29.502c.986-9.872 4.928-18.887 10.94-26.136zm34.008-17.534V51.98c-3.152.575-6.037 1.905-8.47 3.797l-20.66-20.637c7.83-7.075 17.967-11.64 29.13-12.442zm7.055 0c10.785.776 20.604 5.068 28.317 11.74l-20.713 20.69c-2.242-1.552-4.82-2.64-7.604-3.147V22.7zm45.054 45.01h-29.31c-.51-2.782-1.6-5.358-3.152-7.598l20.713-20.69c6.676 7.705 10.973 17.514 11.75 28.287zm-48.58-52.198c-29.116 0-53.08 22.403-55.555 50.858H121.87L63.088.788H4.377C2.426.788.848 2.365.848 4.31c0 1.948 1.578 3.525 3.526 3.525h55.56L112.4 66.368H99.475c-2.178 0-4.15 1.29-5.02 3.284-.868 1.996-.472 4.315 1.012 5.908l169.94 182.573c.146.157.32.282.48.42v122.582h-56.11c-1.95 0-3.53 1.577-3.53 3.524 0 1.945 1.58 3.522 3.53 3.522h119.752c1.95 0 3.528-1.577 3.528-3.523 0-1.948-1.58-3.525-3.528-3.525h-56.586V258.552c.162-.138.335-.264.48-.42l96.75-103.94c.22-.084.452-.165.668-.25l-.128-.33 35.37-38c9.664 7.342 21.443 11.338 33.72 11.338 30.756 0 55.78-24.996 55.78-55.72s-25.024-55.72-55.78-55.72z" fill="#504F64"/></g></svg>