<svg width="410" height="185" viewBox="0 0 410 185" xmlns="http://www.w3.org/2000/svg" xmlns:xlink="http://www.w3.org/1999/xlink"><title>Group 8</title><defs><path id="a" d="M142.102.275H.002v179.33h142.1V.275z"/><path id="c" d="M30.37 33.347V.262H.032v33.085H30.37z"/><path id="e" d="M142.102.275H.002v179.33h142.1V.275z"/><path id="g" d="M30.37 33.347V.262H.032v33.085H30.37z"/></defs><g fill="none" fill-rule="evenodd"><g transform="translate(0 -.21)"><mask id="b" fill="#fff"><use xlink:href="#a"/></mask><path d="M84.917 2.686c5.22 3.62 6.425 6.035 6.425 12.268 0 9.053-9.44 35.605-17.467 57.733-10.24 28.363-25.298 61.154-31.123 70.807 0 0 24.696-1.408 49.19 6.437 22.288 7.245 42.366 18.91 49.993 27.158.803.804-1.203 4.425-7.828 1.207-6.425-3.018-23.09-12.472-43.97-17.1-21.686-4.422-49.19-4.22-60.836-.602-2.406 2.615-5.418 5.632-8.83 8.046-4.22 3.02-7.83 3.622-9.84 3.622-3.814 0-6.828-3.824-8.03-6.84-2.81-6.838-2.81-13.077-2.41-14.083.402-1.006 3.41-2.817 8.232-4.02 4.217-1.007 15.66-2.818 15.66-2.818 5.018-6.64 10.642-17.704 22.89-49.283C62.23 55.59 73.27 8.92 73.27.47c1.205-.602 8.63.202 11.645 2.216" fill="#81CFD3" mask="url(#b)"/></g><path d="M139.928 76.702c-3.212-1.81-4.617-2.012-6.023-2.012-6.224 0-11.846 5.434-18.07 14.283-6.826 9.856-11.444 22.932-13.05 32.185-1.004 6.236-.602 8.448.803 8.448 2.008 0 23.692-26.552 32.726-45.46 1.205-2.614 2.41-5.23 3.614-7.444m5.622 81.672c-5.02 0-11.043-3.824-14.054-7.445-3.413-4.024-6.425-8.852-7.228-17.9-1.004-10.263 1.807-21.125 2.008-22.13-6.024 11.264-16.263 29.77-19.676 29.77-5.622 0-11.846-3.822-14.857-8.245-3.414-5.03-2.61-15.29-1.004-23.94 2.207-11.265 6.624-23.334 15.258-34.8 7.227-9.656 15.258-12.875 20.478-12.875 4.82 0 11.846 5.23 16.062 9.857 1.205-2.612 2.008-4.828 2.61-6.638.2-.806 4.618-.605 8.03 1.81 4.017 2.818 5.82 6.235 5.82 8.85 0 2.615-2.405 5.635-7.826 16.696-5.42 11.064-13.452 31.582-13.25 45.06.2 12.27 4.014 17.3 9.837 19.713.6.2.4 2.214-2.21 2.214M204.374 76.5c-3.012-1.61-4.417-1.81-5.822-1.81-6.224 0-11.846 5.434-18.07 14.283-6.826 9.856-11.043 22.127-12.65 31.383-1.003 6.233-.6 8.446.804 8.446 2.008 0 23.29-25.748 32.325-44.657.804-1.607 2.01-4.222 3.414-7.644m-13.25-15.69c4.818 0 11.443 5.03 15.86 9.455 6.023-14.48 14.255-36.21 18.27-51.896.2-.806 3.815-.404 7.63 1.407 3.812 1.808 6.224 5.227 5.622 11.466-1.004 10.862-12.65 36.208-21.885 57.528-5.22 11.87-10.84 25.146-12.246 31.985-1.205 6.035-.803 8.65.402 9.053 1.204.402 8.633-4.024 17.668-13.277 7.63-7.844 11.042-12.873 11.645-13.88.2-.4 1.002-.2 1.002.605 0 1.408-3.413 10.058-8.633 18.707-3.414 5.633-12.65 17.903-18.874 17.903-4.216 0-10.24-4.023-13.45-6.836-3.415-3.02-4.62-8.654-4.418-12.876.2-4.427 1.003-8.25 1.204-9.255-6.023 11.264-15.86 28.965-19.274 28.965-5.622 0-11.846-3.822-14.857-8.245-3.412-5.03-2.61-15.29-1.003-23.937 2.208-11.268 6.224-22.532 14.857-33.998 7.228-9.656 15.26-12.875 20.48-12.875" fill="#81CFD3"/><path d="M261.997 39.488c0-5.23.402-13.88 1.406-15.288 1.003-1.408 3.212-2.615 7.225-2.213 6.026.603 11.444 4.224 11.645 8.05.2 5.428-6.222 13.074-10.04 15.488-4.413 2.814-8.63 2.814-10.437 2.21-1.407-.402.2-5.026.2-8.247m-18.07 36.208c3.814-9.253 7.03-14.483 7.03-14.483 1.203-.403 7.224-.2 11.04 3.017 4.017 3.422 4.62 4.83 2.812 9.656-1.807 5.03-5.423 10.66-11.645 23.937-5.423 11.466-9.64 22.33-9.64 28.364 0 2.414.402 3.62 1.406 3.62 2.81 0 11.443-6.84 18.473-14.282 7.225-7.64 9.634-11.264 10.638-12.874.405-.4 1.208-.2 1.007.605-1.207 4.63-5.423 13.88-8.633 18.707-9.84 14.685-15.26 17.903-18.875 17.903-1.607 0-7.226-2.212-10.44-4.425-2.41-1.61-7.026-5.43-7.026-13.478 0-13.877 9.035-34.6 13.85-46.266" fill="#81CFD3"/><path d="M286.088 105.67c2.612-1.21 5.222-2.617 8.432-4.83 8.636-6.032 13.653-11.265 16.464-17.096 3.014-6.037 4.218-10.862 2.01-10.862-2.813 0-9.637 4.02-15.26 11.264-5.02 6.435-9.034 13.68-11.646 21.524m-2.21 7.44c-.802 3.42-1.404 6.843-1.404 9.86 0 8.85 5.222 17.096 7.03 19.51 5.016 6.842 21.28 16.698 48.183 16.698 26.906 0 43.568-5.433 56.82-10.26 2.207-.803-1.808 5.028-3.613 6.838-3.014 3.02-26.1 16.296-46.18 17.705-18.87 1.41-27.105-2.615-32.124-4.226-7.83-2.414-29.915-21.12-38.345-34.396-5.223-8.25-6.628-19.716-3.215-33.797 3.215-13.074 8.834-23.534 16.466-32.383 5.62-6.44 12.244-10.058 17.465-9.856 7.028.202 18.472 10.058 20.883 14.685 3.012 5.63.603 15.688-8.033 23.938-8.03 7.644-20.278 13.075-33.93 15.688" fill="#81CFD3"/><path d="M336.68 91.185c6.824-7.642 10.842-13.478 14.657-22.93.602-2.617 2.61-9.253 5.017-11.868 2.412 0 7.832.603 11.446 3.017 3.614 2.412 4.417 7.644 1.002 14.28-1.202 2.414-1.403 8.05-1.403 14.282 0 11.265 2.61 21.527 2.61 29.772 0 7.442-2.41 14.687-6.827 18.707-5.823 5.432-15.26 7.446-21.282 6.437-6.223-1.005-20.68-10.256-21.683-18.305-1.205-9.656 5.622-23.737 12.247-23.737 6.224 0 13.25 7.848 12.65 9.254-.603 1.408-3.013 1.408-6.024 5.23-3.815 4.63-5.02 10.058-5.02 13.477 0 2.62.402 4.027 1.607 4.832 3.413 2.01 18.47-.403 18.47-11.064 0-9.86-3.412-22.733-3.212-38.824-1.004 2.613-2.81 4.222-6.023 5.43-2.81 1.005-9.035 2.815-8.232 2.01" fill="#81CFD3"/><g transform="translate(374.193 6.975)"><mask id="d" fill="#fff"><use xlink:href="#c"/></mask><path d="M12.68 13.806C15.893 6.363 16.294 1.133 17.5.53c1.605-.805 7.83.2 10.64 3.017 3.612 3.62 2.208 9.455.2 13.478-2.61 5.03-6.627 8.65-10.84 11.265-4.217 2.615-9.44 4.624-14.055 5.026-2.41.2-3.413-.6-3.413-1.406 0-1.61 6.224-3.62 12.648-18.104" fill="#81CFD3" mask="url(#d)"/></g><g transform="translate(5 4.79)"><mask id="f" fill="#fff"><use xlink:href="#e"/></mask><path d="M84.917 2.686c5.22 3.62 6.425 6.035 6.425 12.268 0 9.053-9.44 35.605-17.467 57.733-10.24 28.363-25.298 61.154-31.123 70.807 0 0 24.696-1.408 49.19 6.437 22.288 7.245 42.366 18.91 49.993 27.158.803.804-1.203 4.425-7.828 1.207-6.425-3.018-23.09-12.472-43.97-17.1-21.686-4.422-49.19-4.22-60.836-.602-2.406 2.615-5.418 5.632-8.83 8.046-4.22 3.02-7.83 3.622-9.84 3.622-3.814 0-6.828-3.824-8.03-6.84-2.81-6.838-2.81-13.077-2.41-14.083.402-1.006 3.41-2.817 8.232-4.02 4.217-1.007 15.66-2.818 15.66-2.818 5.018-6.64 10.642-17.704 22.89-49.283C62.23 55.59 73.27 8.92 73.27.47c1.205-.602 8.63.202 11.645 2.216" fill="#545454" mask="url(#f)"/></g><path d="M144.928 81.702c-3.212-1.81-4.617-2.012-6.023-2.012-6.224 0-11.846 5.434-18.07 14.283-6.826 9.856-11.444 22.932-13.05 32.185-1.004 6.236-.602 8.448.803 8.448 2.008 0 23.692-26.552 32.726-45.46 1.205-2.614 2.41-5.23 3.614-7.444m5.622 81.672c-5.02 0-11.043-3.824-14.054-7.445-3.413-4.024-6.425-8.852-7.228-17.9-1.004-10.263 1.807-21.125 2.008-22.13-6.024 11.264-16.263 29.77-19.676 29.77-5.622 0-11.846-3.822-14.857-8.245-3.414-5.03-2.61-15.29-1.004-23.94 2.207-11.265 6.624-23.334 15.258-34.8 7.227-9.656 15.258-12.875 20.478-12.875 4.82 0 11.846 5.23 16.062 9.857 1.205-2.612 2.008-4.828 2.61-6.638.2-.806 4.618-.605 8.03 1.81 4.017 2.818 5.82 6.235 5.82 8.85 0 2.615-2.405 5.635-7.826 16.696-5.42 11.064-13.452 31.582-13.25 45.06.2 12.27 4.014 17.3 9.837 19.713.6.2.4 2.214-2.21 2.214M209.374 81.5c-3.012-1.61-4.417-1.81-5.822-1.81-6.224 0-11.846 5.434-18.07 14.283-6.826 9.856-11.043 22.127-12.65 31.383-1.003 6.233-.6 8.446.804 8.446 2.008 0 23.29-25.748 32.325-44.657.804-1.607 2.01-4.222 3.414-7.644m-13.25-15.69c4.818 0 11.443 5.03 15.86 9.455 6.023-14.48 14.255-36.21 18.27-51.896.2-.806 3.815-.404 7.63 1.407 3.812 1.808 6.224 5.227 5.622 11.466-1.004 10.862-12.65 36.208-21.885 57.528-5.22 11.87-10.84 25.146-12.246 31.985-1.205 6.035-.803 8.65.402 9.053 1.204.402 8.633-4.024 17.668-13.277 7.63-7.844 11.042-12.873 11.645-13.88.2-.4 1.002-.2 1.002.605 0 1.408-3.413 10.058-8.633 18.707-3.414 5.633-12.65 17.903-18.874 17.903-4.216 0-10.24-4.023-13.45-6.836-3.415-3.02-4.62-8.654-4.418-12.876.2-4.427 1.003-8.25 1.204-9.255-6.023 11.264-15.86 28.965-19.274 28.965-5.622 0-11.846-3.822-14.857-8.245-3.412-5.03-2.61-15.29-1.003-23.937 2.208-11.268 6.224-22.532 14.857-33.998 7.228-9.656 15.26-12.875 20.48-12.875" fill="#545454"/><path d="M266.997 44.488c0-5.23.402-13.88 1.406-15.288 1.003-1.408 3.212-2.615 7.225-2.213 6.026.603 11.444 4.224 11.645 8.05.2 5.428-6.222 13.074-10.04 15.488-4.413 2.814-8.63 2.814-10.437 2.21-1.407-.402.2-5.026.2-8.247m-18.07 36.208c3.814-9.253 7.03-14.483 7.03-14.483 1.203-.403 7.224-.2 11.04 3.017 4.017 3.422 4.62 4.83 2.812 9.656-1.807 5.03-5.423 10.66-11.645 23.937-5.423 11.466-9.64 22.33-9.64 28.364 0 2.414.402 3.62 1.406 3.62 2.81 0 11.443-6.84 18.473-14.282 7.225-7.64 9.634-11.264 10.638-12.874.405-.4 1.208-.2 1.007.605-1.207 4.63-5.423 13.88-8.633 18.707-9.84 14.685-15.26 17.903-18.875 17.903-1.607 0-7.226-2.212-10.44-4.425-2.41-1.61-7.026-5.43-7.026-13.478 0-13.877 9.035-34.6 13.85-46.266" fill="#545454"/><path d="M291.088 110.67c2.612-1.21 5.222-2.617 8.432-4.83 8.636-6.032 13.653-11.265 16.464-17.096 3.014-6.037 4.218-10.862 2.01-10.862-2.813 0-9.637 4.02-15.26 11.264-5.02 6.435-9.034 13.68-11.646 21.524m-2.21 7.44c-.802 3.42-1.404 6.843-1.404 9.86 0 8.85 5.222 17.096 7.03 19.51 5.016 6.842 21.28 16.698 48.183 16.698 26.906 0 43.568-5.433 56.82-10.26 2.207-.803-1.808 5.028-3.613 6.838-3.014 3.02-26.1 16.296-46.18 17.705-18.87 1.41-27.105-2.615-32.124-4.226-7.83-2.414-29.915-21.12-38.345-34.396-5.223-8.25-6.628-19.716-3.215-33.797 3.215-13.074 8.834-23.534 16.466-32.383 5.62-6.44 12.244-10.058 17.465-9.856 7.028.202 18.472 10.058 20.883 14.685 3.012 5.63.603 15.688-8.033 23.938-8.03 7.644-20.278 13.075-33.93 15.688" fill="#545454"/><path d="M341.68 96.185c6.824-7.642 10.842-13.478 14.657-22.93.602-2.617 2.61-9.253 5.017-11.868 2.412 0 7.832.603 11.446 3.017 3.614 2.412 4.417 7.644 1.002 14.28-1.202 2.414-1.403 8.05-1.403 14.282 0 11.265 2.61 21.527 2.61 29.772 0 7.442-2.41 14.687-6.827 18.707-5.823 5.432-15.26 7.446-21.282 6.437-6.223-1.005-20.68-10.256-21.683-18.305-1.205-9.656 5.622-23.737 12.247-23.737 6.224 0 13.25 7.848 12.65 9.254-.603 1.408-3.013 1.408-6.024 5.23-3.815 4.63-5.02 10.058-5.02 13.477 0 2.62.402 4.027 1.607 4.832 3.413 2.01 18.47-.403 18.47-11.064 0-9.86-3.412-22.733-3.212-38.824-1.004 2.613-2.81 4.222-6.023 5.43-2.81 1.005-9.035 2.815-8.232 2.01" fill="#545454"/><g transform="translate(379.193 11.975)"><mask id="h" fill="#fff"><use xlink:href="#g"/></mask><path d="M12.68 13.806C15.893 6.363 16.294 1.133 17.5.53c1.605-.805 7.83.2 10.64 3.017 3.612 3.62 2.208 9.455.2 13.478-2.61 5.03-6.627 8.65-10.84 11.265-4.217 2.615-9.44 4.624-14.055 5.026-2.41.2-3.413-.6-3.413-1.406 0-1.61 6.224-3.62 12.648-18.104" fill="#545454" mask="url(#h)"/></g></g></svg>