<svg width="1059" height="422" viewBox="0 0 1059 422" xmlns="http://www.w3.org/2000/svg" xmlns:xlink="http://www.w3.org/1999/xlink"><title>Group 9</title><defs><path id="a" d="M142.102.275H.002v179.33h142.1V.275z"/><path id="c" d="M30.37 33.347V.262H.032v33.085H30.37z"/><path id="e" d="M142.102.275H.002v179.33h142.1V.275z"/><path id="g" d="M30.37 33.347V.262H.032v33.085H30.37z"/></defs><g fill="none" fill-rule="evenodd"><path d="M756.18 339.63c-3.59-11.804-3.99-27.807 2.593-52.012 5.784-21.002 12.167-35.605 19.15-51.61-3.592 3.602-9.775 8.203-21.943 24.204-12.168 16.004-21.343 30.81-26.13 55.214v-1.603c-.998 6.604-.998 10.202-.998 10.202-6.582-.2-11.968-3.2-12.766-8.6-.798-5.402 7.18-36.006 12.168-52.412 10.77-35.605 14.162-46.007 15.558-52.21 1.197-5 1.995-9.2.2-10.2-1.596-.803-11.77 2-29.92 21.802-18.55 20.206-24.136 46.21-24.136 57.414 0 7.798 2.792 11.8 2.194 12-3.192.6-10.772-1.2-14.56-4.802-3.99-3.8-4.59-8-4.59-12.803 0-6.2 1.6-19.802 10.972-36.807 7.78-14.203 20.345-28.206 30.518-36.005C727.456 191.4 735.235 189 739.225 189c3.99 0 22.54 12.403 22.94 18.404.398 7.4-8.778 27.803-17.954 55.21l-2.79 8.2c8.177-14.8 18.15-27.403 24.933-35.207 9.572-11.202 17.952-20.202 23.338-24.805 6.583.6 12.368 7.804 12.368 11.202 0 3-1.798 5.004-4.987 11.005-4.587 8.6-10.172 19.603-17.552 39.405-9.774 26.005-11.57 48.012-11.57 60.415 0 9.602 2.593 24.205 7.578 29.603 1.398 1.6-1.195 3.6-3.39 1.8-5.385-4.2-12.366-12.402-15.956-24.604" fill="#EAC8C2"/><path d="M819.412 224.405c0-5.2.398-13.802 1.396-15.203.997-1.4 3.19-2.6 7.178-2.2 5.987.6 11.37 4.2 11.57 8.004.2 5.4-6.182 13.003-9.974 15.403-4.386 2.797-8.575 2.797-10.37 2.197-1.4-.4.2-5 .2-8.202m-17.955 36.008c3.79-9.202 6.984-14.403 6.984-14.403 1.197-.4 7.18-.2 10.972 3 3.99 3.404 4.587 4.804 2.792 9.602-1.795 5-5.388 10.603-11.57 23.805-5.387 11.403-9.576 22.207-9.576 28.206 0 2.4.4 3.6 1.396 3.6 2.793 0 11.37-6.8 18.354-14.202 7.178-7.598 9.572-11.2 10.57-12.802.4-.4 1.2-.2 1 .6-1.2 4.604-5.39 13.803-8.578 18.604-9.777 14.603-15.16 17.804-18.753 17.804-1.595 0-7.178-2.2-10.37-4.4-2.396-1.6-6.98-5.402-6.98-13.404 0-13.8 8.975-34.407 13.76-46.01" fill="#EAC8C2"/><path d="M884.234 256.413c-2.593-.8-4.987-1.2-7.378-1.2-6.585 0-14.56 1.4-22.543 8-9.375 7.603-11.57 15.605-9.175 17.005 2.394 1.6 9.973 2.4 21.742-7.402 6.782-5.6 12.966-12.202 17.354-16.403m26.53-5.204c-.4 1.402-2.993.602-7.18.602-4.79 0-9.377 2-12.17 3.2.2 2-.2 4-.2 4-1.79-.6-3.188-1.4-4.586-1.8 1.2 4.802 1 10.603.6 12.804-.6 3-1.997 5-5.188 8.2-6.18 6.203-9.575 8.403-17.152 15.205-4.19 3.8-12.567 11.603-11.97 13.203.2.4 8.177-1.4 16.954.6 9.774 2.2 16.756 9.602 20.546 15.404 3.79 5.6 5.784 13.602 5.784 22.804 0 17.405-9.373 40.61-29.322 56.21-20.146 15.404-34.508 17.607-43.282 17.607-12.368 0-24.136-5.604-29.325-9.202-9.373-6.404-15.957-17.004-15.957-26.806 0-10.003 2.194-22.205 19.55-39.21 13.364-13.002 30.516-18.605 45.676-18.405 19.55-.2 28.125 9.204 28.125 19.606 0 10.003-5.585 21.606-17.752 21.606-4.586 0-6.782-2.403-6.583-3.203 3.593-2.598 13.564-8.8 13.564-20.402 0-7.4-4.787-10.6-11.567-10.6-8.78 0-24.935 5.397-40.296 23.003-15.36 17.404-23.136 37.808-11.368 46.808 12.166 9.405 38.1 1.4 58.243-14.402 16.755-13.2 28.922-34.807 28.922-52.01 0-9.803-3.39-14.002-6.183-16.002-2.99-2.2-8.977-3.2-18.352-2.2-5.386.6-12.966 3.6-14.562 3.6-2.593 0-5.782-1.6-9.372-7.204-2.396-3.598-2.995-5.198-2.995-8.2 0-3.2 13.962-13.202 13.962-13.202s-6.184-4.003-9.97-8.4c-3.394-3.802-5.39-8.605-5.39-13.204 0-7.2 5.19-14.403 11.97-20.007 5.786-4.8 16.555-9.4 25.332-9.4 7.382 0 10.77 1.4 13.963 3.4 1.994 1.2 3.792 3 5.188 4.602.2-.6.4-1.2.798-1.8 2.79-4.602 3.788-6.202 7.777-8.803 1.995-1.4 4.99-2.8 9.575-2.2 4.587.6 4.986 10.8 4.188 14.2" fill="#EAC8C2"/><path d="M943.076 202.403c2.994 2.6 4.79 5.2 4.79 7.8 0 3.002-2.195 9.203-4.192 14.202-5.784 14.205-17.154 41.01-29.122 72.215 6.984-10.002 23.138-29.204 35.705-45.61 3.19-4.2 3.59-5.6 7.183-5.6 3.59 0 10.97 4 10.97 8.003 0 4-2.994 8.8-6.385 15.203-6.383 12.003-15.556 29.004-15.556 41.606 0 3.8 1.196 6.004 2.193 6.004 2.59 0 11.17-7.204 18.15-14.805 4.59-5 8.776-9.6 11.968-14.402.4-.8 1.198-.2.998 1-.598 3.203-5.385 13.603-10.572 21.404-6.98 10.405-13.962 17.204-18.75 17.204-2.59 0-9.574-3.8-12.367-5.8-5.584-4.2-6.382-14.002-4.387-23.806 2.194-10.803 5.583-17.802 7.578-22.405-2.99 2.603-6.18 6.804-15.558 18.006-5.383 6.4-13.364 17.802-17.152 24.006-2.194 3.6-3.194 7.4-4.19 7.4-3.392 0-10.57-3-10.57-7.4 0-2.203 3.99-13.603 9.57-29.408 7.584-21.802 12.568-35.605 22.54-65.414 5.587-16.4 6.387-21.602 7.983-22.404 2.393 0 7.378 1.402 9.173 3.003" fill="#EAC8C2"/><path d="M997.134 228.008c4.986-13.403 7.378-19.404 8.178-22.405 1.197 0 7.78.4 12.367 4.6 4.587 4.202 3.39 8.803.597 14.602l-1.598 3.403c28.925-.4 36.9-3.203 41.69-3.603 1.397.8-.598 5.003-2.794 7.404-1.396 1.6-3.39 3.397-7.18 4.397-3.59 1-14.36 2.803-36.9 3.003-11.37 25.405-20.546 50.61-23.34 62.41-1.993 8.002-1.993 11.803-.796 11.803 2.393 0 9.175-3.6 16.952-10.8 6.186-5.603 12.766-13.605 13.965-14.805.798-.8 2.195-.2 1.596 1.2-2.396 5.804-8.178 15.406-13.963 22.805-8.377 10.802-13.564 13.002-17.154 13.002-2.593 0-9.575-3.598-12.766-6.198-2.793-2.4-3.59-4.804-3.59-9.402 0-5.802 3.19-18.804 6.38-29.006 5.986-18.808 9.577-28.007 14.364-41.21-42.287-1.403-88.963-9.602-106.716-19.404-1.596-.8 10.77-10.802 17.354-10.802 6.183 0 38.098 16.6 93.352 19.004" fill="#EAC8C2"/><path d="M750.18 333.63c-3.59-11.804-3.99-27.807 2.593-52.012 5.784-21.002 12.167-35.605 19.15-51.61-3.592 3.602-9.775 8.203-21.943 24.204-12.168 16.004-21.343 30.81-26.13 55.214v-1.603c-.998 6.604-.998 10.202-.998 10.202-6.582-.2-11.968-3.2-12.766-8.6-.798-5.402 7.18-36.006 12.168-52.412 10.77-35.605 14.162-46.007 15.558-52.21 1.197-5 1.995-9.2.2-10.2-1.596-.803-11.77 2-29.92 21.802-18.55 20.206-24.136 46.21-24.136 57.414 0 7.798 2.792 11.8 2.194 12-3.192.6-10.772-1.2-14.56-4.802-3.99-3.8-4.59-8-4.59-12.803 0-6.2 1.6-19.802 10.972-36.807 7.78-14.203 20.345-28.206 30.518-36.005C721.456 185.4 729.235 183 733.225 183c3.99 0 22.54 12.403 22.94 18.404.398 7.4-8.778 27.803-17.954 55.21l-2.79 8.2c8.177-14.8 18.15-27.403 24.933-35.207 9.572-11.202 17.952-20.202 23.338-24.805 6.583.6 12.368 7.804 12.368 11.202 0 3-1.798 5.004-4.987 11.005-4.587 8.6-10.172 19.603-17.552 39.405-9.774 26.005-11.57 48.012-11.57 60.415 0 9.602 2.593 24.205 7.578 29.603 1.398 1.6-1.195 3.6-3.39 1.8-5.385-4.2-12.366-12.402-15.956-24.604" fill="#545454"/><path d="M813.412 218.405c0-5.2.398-13.802 1.396-15.203.997-1.4 3.19-2.6 7.178-2.2 5.987.6 11.37 4.2 11.57 8.004.2 5.4-6.182 13.003-9.974 15.403-4.386 2.797-8.575 2.797-10.37 2.197-1.4-.4.2-5 .2-8.202m-17.955 36.008c3.79-9.202 6.984-14.403 6.984-14.403 1.197-.4 7.18-.2 10.972 3 3.99 3.404 4.587 4.804 2.792 9.602-1.795 5-5.388 10.603-11.57 23.805-5.387 11.403-9.576 22.207-9.576 28.206 0 2.4.4 3.6 1.396 3.6 2.793 0 11.37-6.8 18.354-14.202 7.178-7.598 9.572-11.2 10.57-12.802.4-.4 1.2-.2 1 .6-1.2 4.604-5.39 13.803-8.578 18.604-9.777 14.603-15.16 17.804-18.753 17.804-1.595 0-7.178-2.2-10.37-4.4-2.396-1.6-6.98-5.402-6.98-13.404 0-13.8 8.975-34.407 13.76-46.01" fill="#545454"/><path d="M878.234 250.413c-2.593-.8-4.987-1.2-7.378-1.2-6.585 0-14.56 1.4-22.543 8-9.375 7.603-11.57 15.605-9.175 17.005 2.394 1.6 9.973 2.4 21.742-7.402 6.782-5.6 12.966-12.202 17.354-16.403m26.53-5.204c-.4 1.402-2.993.602-7.18.602-4.79 0-9.377 2-12.17 3.2.2 2-.2 4-.2 4-1.79-.6-3.188-1.4-4.586-1.8 1.2 4.802 1 10.603.6 12.804-.6 3-1.997 5-5.188 8.2-6.18 6.203-9.575 8.403-17.152 15.205-4.19 3.8-12.567 11.603-11.97 13.203.2.4 8.177-1.4 16.954.6 9.774 2.2 16.756 9.602 20.546 15.404 3.79 5.6 5.784 13.602 5.784 22.804 0 17.405-9.373 40.61-29.322 56.21-20.146 15.404-34.508 17.607-43.282 17.607-12.368 0-24.136-5.604-29.325-9.202-9.373-6.404-15.957-17.004-15.957-26.806 0-10.003 2.194-22.205 19.55-39.21 13.364-13.002 30.516-18.605 45.676-18.405 19.55-.2 28.125 9.204 28.125 19.606 0 10.003-5.585 21.606-17.752 21.606-4.586 0-6.782-2.403-6.583-3.203 3.593-2.598 13.564-8.8 13.564-20.402 0-7.4-4.787-10.6-11.567-10.6-8.78 0-24.935 5.397-40.296 23.003-15.36 17.404-23.136 37.808-11.368 46.808 12.166 9.405 38.1 1.4 58.243-14.402 16.755-13.2 28.922-34.807 28.922-52.01 0-9.803-3.39-14.002-6.183-16.002-2.99-2.2-8.977-3.2-18.352-2.2-5.386.6-12.966 3.6-14.562 3.6-2.593 0-5.782-1.6-9.372-7.204-2.396-3.598-2.995-5.198-2.995-8.2 0-3.2 13.962-13.202 13.962-13.202s-6.184-4.003-9.97-8.4c-3.394-3.802-5.39-8.605-5.39-13.204 0-7.2 5.19-14.403 11.97-20.007 5.786-4.8 16.555-9.4 25.332-9.4 7.382 0 10.77 1.4 13.963 3.4 1.994 1.2 3.792 3 5.188 4.602.2-.6.4-1.2.798-1.8 2.79-4.602 3.788-6.202 7.777-8.803 1.995-1.4 4.99-2.8 9.575-2.2 4.587.6 4.986 10.8 4.188 14.2" fill="#545454"/><path d="M937.076 196.403c2.994 2.6 4.79 5.2 4.79 7.8 0 3.002-2.195 9.203-4.192 14.202-5.784 14.205-17.154 41.01-29.122 72.215 6.984-10.002 23.138-29.204 35.705-45.61 3.19-4.2 3.59-5.6 7.183-5.6 3.59 0 10.97 4 10.97 8.003 0 4-2.994 8.8-6.385 15.203-6.383 12.003-15.556 29.004-15.556 41.606 0 3.8 1.196 6.004 2.193 6.004 2.59 0 11.17-7.204 18.15-14.805 4.59-5 8.776-9.6 11.968-14.402.4-.8 1.198-.2.998 1-.598 3.203-5.385 13.603-10.572 21.404-6.98 10.405-13.962 17.204-18.75 17.204-2.59 0-9.574-3.8-12.367-5.8-5.584-4.2-6.382-14.002-4.387-23.806 2.194-10.803 5.583-17.802 7.578-22.405-2.99 2.603-6.18 6.804-15.558 18.006-5.383 6.4-13.364 17.802-17.152 24.006-2.194 3.6-3.194 7.4-4.19 7.4-3.392 0-10.57-3-10.57-7.4 0-2.203 3.99-13.603 9.57-29.408 7.584-21.802 12.568-35.605 22.54-65.414 5.587-16.4 6.387-21.602 7.983-22.404 2.393 0 7.378 1.402 9.173 3.003" fill="#545454"/><path d="M991.134 222.008c4.986-13.403 7.378-19.404 8.178-22.405 1.197 0 7.78.4 12.367 4.6 4.587 4.202 3.39 8.803.597 14.602l-1.598 3.403c28.925-.4 36.9-3.203 41.69-3.603 1.397.8-.598 5.003-2.794 7.404-1.396 1.6-3.39 3.397-7.18 4.397-3.59 1-14.36 2.803-36.9 3.003-11.37 25.405-20.546 50.61-23.34 62.41-1.993 8.002-1.993 11.803-.796 11.803 2.393 0 9.175-3.6 16.952-10.8 6.186-5.603 12.766-13.605 13.965-14.805.798-.8 2.195-.2 1.596 1.2-2.396 5.804-8.178 15.406-13.963 22.805-8.377 10.802-13.564 13.002-17.154 13.002-2.593 0-9.575-3.598-12.766-6.198-2.793-2.4-3.59-4.804-3.59-9.402 0-5.802 3.19-18.804 6.38-29.006 5.986-18.808 9.577-28.007 14.364-41.21-42.287-1.403-88.963-9.602-106.716-19.404-1.596-.8 10.77-10.802 17.354-10.802 6.183 0 38.098 16.6 93.352 19.004" fill="#545454"/><path d="M751.47 5.154c-32.424 0-58.71 26.258-58.71 58.647 0 2.15.124 4.27.35 6.36l50.243 1.08-29.13 37.893c10.134 8.32 23.105 13.316 37.247 13.316 32.423 0 58.708-26.26 58.708-58.65 0-32.388-26.285-58.646-58.708-58.646" fill="#E1D994"/><path d="M671.57 150.966c-4.053 1.395-8.467 2.627-13.1 3.666l10.036-12.55c-11.958 4.116-26.336 6.477-39.446 6.477-7.495 0-14.526-.74-20.896-2.197-12.078-2.764-20.235-7.35-28.872-12.21-8.582-4.824-17.456-9.814-30.12-13.147-8.16-2.147-16.988-3.236-26.237-3.236-19.242 0-38.86 4.648-58.328 13.816l-16.34 3.874 122.15 129.29 28.998-36.266 72.155-77.518z" fill="#ED533C"/><path fill="#81CFD3" d="M663.076 134.253l-5.168-4.8 38.87-41.758 5.17 4.8M647.655 130.24l-5.168-4.8 38.87-41.76 5.17 4.798M581.43 192.606l13.8-13.786 13.8 13.786-13.8 13.786M552.284 162.885l18.822-5.15 5.156 18.803-18.822 5.15"/><path d="M595.23 201.408l-8.81-8.803 8.81-8.802 8.81 8.802-8.81 8.803zm-18.788-8.803l18.788 18.77 18.788-18.77-18.788-18.768-18.788 18.768zM559.91 177.36l-3.293-12.007 12.02-3.288 3.292 12.005-12.02 3.29zm13.666-23.954l-25.626 7.012 7.02 25.6 25.626-7.014-7.02-25.598z" fill="#504F64"/><path d="M778.92 103.916l-20.015-21.212c2.095-2.528 3.554-5.594 4.168-8.95h29.31c-.84 11.67-5.81 22.206-13.462 30.162zm-31.59 14.846V89.48c2.204-.403 4.275-1.17 6.157-2.244l20.194 21.4c-7.385 5.747-16.46 9.414-26.35 10.126zm-7.126-36.512l7.158-7.69c1.484-1.593 1.88-3.912 1.01-5.908-.87-1.994-2.84-3.284-5.018-3.284h-11.12c1.906-4.505 6.374-7.674 11.57-7.674 6.92 0 12.55 5.624 12.55 12.537 0 6.912-5.63 12.536-12.55 12.536-1.25 0-2.454-.176-3.6-.516zm.07 36.513c-9.205-.662-17.964-3.897-25.358-9.344l20.142-21.64c1.642.82 3.39 1.397 5.217 1.72v29.263zm-70.114 28.39c-16.002 5.74-41.72 10.238-64.9 4.934-12.907-2.954-21.424-7.743-30.443-12.814-8.258-4.644-16.8-9.447-28.735-12.588-11.777-3.098-33.973-6.088-62.524 3.08-.057-.072-.1-.15-.162-.22l-51.207-57.13h307.535l-69.565 74.737zm-96.747 103.936L471.71 141.826c4.81-2.13 9.462-3.89 13.946-5.333L562.844 221c.696.76 1.65 1.148 2.607 1.148.85 0 1.7-.303 2.377-.92 1.44-1.312 1.542-3.54.227-4.98l-74.846-81.94c23.223-5.942 41.14-3.423 51.077-.807 11.06 2.91 18.838 7.285 27.072 11.914 9.058 5.094 18.426 10.362 32.327 13.542 7.768 1.777 15.792 2.524 23.676 2.524 11.904 0 23.468-1.71 33.32-4.143l-87.267 93.752zM407.103 72.415h15.614l53.665 59.87c-3.177 1.208-6.423 2.572-9.736 4.1l-59.543-63.97zm299.164-33.184l20.827 20.806c-1.003 1.635-1.77 3.43-2.264 5.33h-29.502c.986-9.872 4.928-18.887 10.94-26.136zm34.008-17.534V50.98c-3.152.575-6.037 1.905-8.47 3.797l-20.66-20.637c7.83-7.075 17.967-11.64 29.13-12.442zm7.055 0c10.785.776 20.604 5.068 28.317 11.74l-20.713 20.69c-2.242-1.552-4.82-2.64-7.604-3.147V21.7zm45.054 45.01h-29.31c-.51-2.782-1.6-5.358-3.152-7.598l20.713-20.69c6.676 7.705 10.973 17.514 11.75 28.287zm-48.58-52.198c-29.116 0-53.08 22.403-55.555 50.858H425.87L367.088-.212h-58.71c-1.95 0-3.528 1.577-3.528 3.523 0 1.948 1.578 3.525 3.526 3.525h55.56L416.4 65.368h-12.926c-2.178 0-4.15 1.29-5.02 3.284-.868 1.996-.472 4.315 1.012 5.908l169.94 182.573c.146.157.32.282.48.42v122.582h-56.11c-1.95 0-3.53 1.577-3.53 3.524 0 1.945 1.58 3.522 3.53 3.522h119.752c1.95 0 3.528-1.577 3.528-3.523 0-1.948-1.58-3.525-3.528-3.525h-56.586V257.552c.162-.138.335-.264.48-.42l96.75-103.94c.22-.084.452-.165.668-.25l-.128-.33 35.37-38c9.664 7.342 21.443 11.338 33.72 11.338 30.756 0 55.78-24.996 55.78-55.72s-25.024-55.72-55.78-55.72z" fill="#504F64"/><g transform="translate(0 108.79)"><mask id="b" fill="#fff"><use xlink:href="#a"/></mask><path d="M84.917 2.686c5.22 3.62 6.425 6.035 6.425 12.268 0 9.053-9.44 35.605-17.467 57.733-10.24 28.363-25.298 61.154-31.123 70.807 0 0 24.696-1.408 49.19 6.437 22.288 7.245 42.366 18.91 49.993 27.158.803.804-1.203 4.425-7.828 1.207-6.425-3.018-23.09-12.472-43.97-17.1-21.686-4.422-49.19-4.22-60.836-.602-2.406 2.615-5.418 5.632-8.83 8.046-4.22 3.02-7.83 3.622-9.84 3.622-3.814 0-6.828-3.824-8.03-6.84-2.81-6.838-2.81-13.077-2.41-14.083.402-1.006 3.41-2.817 8.232-4.02 4.217-1.007 15.66-2.818 15.66-2.818 5.018-6.64 10.642-17.704 22.89-49.283C62.23 55.59 73.27 8.92 73.27.47c1.205-.602 8.63.202 11.645 2.216" fill="#81CFD3" mask="url(#b)"/></g><path d="M139.928 185.702c-3.212-1.81-4.617-2.012-6.023-2.012-6.224 0-11.846 5.434-18.07 14.283-6.826 9.856-11.444 22.932-13.05 32.185-1.004 6.236-.602 8.448.803 8.448 2.008 0 23.692-26.552 32.726-45.46 1.205-2.614 2.41-5.23 3.614-7.444m5.622 81.672c-5.02 0-11.043-3.824-14.054-7.445-3.413-4.024-6.425-8.852-7.228-17.9-1.004-10.263 1.807-21.125 2.008-22.13-6.024 11.264-16.263 29.77-19.676 29.77-5.622 0-11.846-3.822-14.857-8.245-3.414-5.03-2.61-15.29-1.004-23.94 2.207-11.265 6.624-23.334 15.258-34.8 7.227-9.656 15.258-12.875 20.478-12.875 4.82 0 11.846 5.23 16.062 9.857 1.205-2.612 2.008-4.828 2.61-6.638.2-.806 4.618-.605 8.03 1.81 4.017 2.818 5.82 6.235 5.82 8.85 0 2.615-2.405 5.635-7.826 16.696-5.42 11.064-13.452 31.582-13.25 45.06.2 12.27 4.014 17.3 9.837 19.713.6.2.4 2.214-2.21 2.214M204.374 185.5c-3.012-1.61-4.417-1.81-5.822-1.81-6.224 0-11.846 5.434-18.07 14.283-6.826 9.856-11.043 22.127-12.65 31.383-1.003 6.233-.6 8.446.804 8.446 2.008 0 23.29-25.748 32.325-44.657.804-1.607 2.01-4.222 3.414-7.644m-13.25-15.69c4.818 0 11.443 5.03 15.86 9.455 6.023-14.48 14.255-36.21 18.27-51.896.2-.806 3.815-.404 7.63 1.407 3.812 1.808 6.224 5.227 5.622 11.466-1.004 10.862-12.65 36.208-21.885 57.528-5.22 11.87-10.84 25.146-12.246 31.985-1.205 6.035-.803 8.65.402 9.053 1.204.402 8.633-4.024 17.668-13.277 7.63-7.844 11.042-12.873 11.645-13.88.2-.4 1.002-.2 1.002.605 0 1.408-3.413 10.058-8.633 18.707-3.414 5.633-12.65 17.903-18.874 17.903-4.216 0-10.24-4.023-13.45-6.836-3.415-3.02-4.62-8.654-4.418-12.876.2-4.427 1.003-8.25 1.204-9.255-6.023 11.264-15.86 28.965-19.274 28.965-5.622 0-11.846-3.822-14.857-8.245-3.412-5.03-2.61-15.29-1.003-23.937 2.208-11.268 6.224-22.532 14.857-33.998 7.228-9.656 15.26-12.875 20.48-12.875" fill="#81CFD3"/><path d="M261.997 148.488c0-5.23.402-13.88 1.406-15.288 1.003-1.408 3.212-2.615 7.225-2.213 6.026.603 11.444 4.224 11.645 8.05.2 5.428-6.222 13.074-10.04 15.488-4.413 2.814-8.63 2.814-10.437 2.21-1.407-.402.2-5.026.2-8.247m-18.07 36.208c3.814-9.253 7.03-14.483 7.03-14.483 1.203-.403 7.224-.2 11.04 3.017 4.017 3.422 4.62 4.83 2.812 9.656-1.807 5.03-5.423 10.66-11.645 23.937-5.423 11.466-9.64 22.33-9.64 28.364 0 2.414.402 3.62 1.406 3.62 2.81 0 11.443-6.84 18.473-14.282 7.225-7.64 9.634-11.264 10.638-12.874.405-.4 1.208-.2 1.007.605-1.207 4.63-5.423 13.88-8.633 18.707-9.84 14.685-15.26 17.903-18.875 17.903-1.607 0-7.226-2.212-10.44-4.425-2.41-1.61-7.026-5.43-7.026-13.478 0-13.877 9.035-34.6 13.85-46.266" fill="#81CFD3"/><path d="M286.088 214.67c2.612-1.21 5.222-2.617 8.432-4.83 8.636-6.032 13.653-11.265 16.464-17.096 3.014-6.037 4.218-10.862 2.01-10.862-2.813 0-9.637 4.02-15.26 11.264-5.02 6.435-9.034 13.68-11.646 21.524m-2.21 7.44c-.802 3.42-1.404 6.843-1.404 9.86 0 8.85 5.222 17.096 7.03 19.51 5.016 6.842 21.28 16.698 48.183 16.698 26.906 0 43.568-5.433 56.82-10.26 2.207-.803-1.808 5.028-3.613 6.838-3.014 3.02-26.1 16.296-46.18 17.705-18.87 1.41-27.105-2.615-32.124-4.226-7.83-2.414-29.915-21.12-38.345-34.396-5.223-8.25-6.628-19.716-3.215-33.797 3.215-13.074 8.834-23.534 16.466-32.383 5.62-6.44 12.244-10.058 17.465-9.856 7.028.202 18.472 10.058 20.883 14.685 3.012 5.63.603 15.688-8.033 23.938-8.03 7.644-20.278 13.075-33.93 15.688" fill="#81CFD3"/><path d="M336.68 200.185c6.824-7.642 10.842-13.478 14.657-22.93.602-2.617 2.61-9.253 5.017-11.868 2.412 0 7.832.603 11.446 3.017 3.614 2.412 4.417 7.644 1.002 14.28-1.202 2.414-1.403 8.05-1.403 14.282 0 11.265 2.61 21.527 2.61 29.772 0 7.442-2.41 14.687-6.827 18.707-5.823 5.432-15.26 7.446-21.282 6.437-6.223-1.005-20.68-10.256-21.683-18.305-1.205-9.656 5.622-23.737 12.247-23.737 6.224 0 13.25 7.848 12.65 9.254-.603 1.408-3.013 1.408-6.024 5.23-3.815 4.63-5.02 10.058-5.02 13.477 0 2.62.402 4.027 1.607 4.832 3.413 2.01 18.47-.403 18.47-11.064 0-9.86-3.412-22.733-3.212-38.824-1.004 2.613-2.81 4.222-6.023 5.43-2.81 1.005-9.035 2.815-8.232 2.01" fill="#81CFD3"/><g transform="translate(374.193 115.975)"><mask id="d" fill="#fff"><use xlink:href="#c"/></mask><path d="M12.68 13.806C15.893 6.363 16.294 1.133 17.5.53c1.605-.805 7.83.2 10.64 3.017 3.612 3.62 2.208 9.455.2 13.478-2.61 5.03-6.627 8.65-10.84 11.265-4.217 2.615-9.44 4.624-14.055 5.026-2.41.2-3.413-.6-3.413-1.406 0-1.61 6.224-3.62 12.648-18.104" fill="#81CFD3" mask="url(#d)"/></g><g transform="translate(5 113.79)"><mask id="f" fill="#fff"><use xlink:href="#e"/></mask><path d="M84.917 2.686c5.22 3.62 6.425 6.035 6.425 12.268 0 9.053-9.44 35.605-17.467 57.733-10.24 28.363-25.298 61.154-31.123 70.807 0 0 24.696-1.408 49.19 6.437 22.288 7.245 42.366 18.91 49.993 27.158.803.804-1.203 4.425-7.828 1.207-6.425-3.018-23.09-12.472-43.97-17.1-21.686-4.422-49.19-4.22-60.836-.602-2.406 2.615-5.418 5.632-8.83 8.046-4.22 3.02-7.83 3.622-9.84 3.622-3.814 0-6.828-3.824-8.03-6.84-2.81-6.838-2.81-13.077-2.41-14.083.402-1.006 3.41-2.817 8.232-4.02 4.217-1.007 15.66-2.818 15.66-2.818 5.018-6.64 10.642-17.704 22.89-49.283C62.23 55.59 73.27 8.92 73.27.47c1.205-.602 8.63.202 11.645 2.216" fill="#545454" mask="url(#f)"/></g><path d="M144.928 190.702c-3.212-1.81-4.617-2.012-6.023-2.012-6.224 0-11.846 5.434-18.07 14.283-6.826 9.856-11.444 22.932-13.05 32.185-1.004 6.236-.602 8.448.803 8.448 2.008 0 23.692-26.552 32.726-45.46 1.205-2.614 2.41-5.23 3.614-7.444m5.622 81.672c-5.02 0-11.043-3.824-14.054-7.445-3.413-4.024-6.425-8.852-7.228-17.9-1.004-10.263 1.807-21.125 2.008-22.13-6.024 11.264-16.263 29.77-19.676 29.77-5.622 0-11.846-3.822-14.857-8.245-3.414-5.03-2.61-15.29-1.004-23.94 2.207-11.265 6.624-23.334 15.258-34.8 7.227-9.656 15.258-12.875 20.478-12.875 4.82 0 11.846 5.23 16.062 9.857 1.205-2.612 2.008-4.828 2.61-6.638.2-.806 4.618-.605 8.03 1.81 4.017 2.818 5.82 6.235 5.82 8.85 0 2.615-2.405 5.635-7.826 16.696-5.42 11.064-13.452 31.582-13.25 45.06.2 12.27 4.014 17.3 9.837 19.713.6.2.4 2.214-2.21 2.214M209.374 190.5c-3.012-1.61-4.417-1.81-5.822-1.81-6.224 0-11.846 5.434-18.07 14.283-6.826 9.856-11.043 22.127-12.65 31.383-1.003 6.233-.6 8.446.804 8.446 2.008 0 23.29-25.748 32.325-44.657.804-1.607 2.01-4.222 3.414-7.644m-13.25-15.69c4.818 0 11.443 5.03 15.86 9.455 6.023-14.48 14.255-36.21 18.27-51.896.2-.806 3.815-.404 7.63 1.407 3.812 1.808 6.224 5.227 5.622 11.466-1.004 10.862-12.65 36.208-21.885 57.528-5.22 11.87-10.84 25.146-12.246 31.985-1.205 6.035-.803 8.65.402 9.053 1.204.402 8.633-4.024 17.668-13.277 7.63-7.844 11.042-12.873 11.645-13.88.2-.4 1.002-.2 1.002.605 0 1.408-3.413 10.058-8.633 18.707-3.414 5.633-12.65 17.903-18.874 17.903-4.216 0-10.24-4.023-13.45-6.836-3.415-3.02-4.62-8.654-4.418-12.876.2-4.427 1.003-8.25 1.204-9.255-6.023 11.264-15.86 28.965-19.274 28.965-5.622 0-11.846-3.822-14.857-8.245-3.412-5.03-2.61-15.29-1.003-23.937 2.208-11.268 6.224-22.532 14.857-33.998 7.228-9.656 15.26-12.875 20.48-12.875" fill="#545454"/><path d="M266.997 153.488c0-5.23.402-13.88 1.406-15.288 1.003-1.408 3.212-2.615 7.225-2.213 6.026.603 11.444 4.224 11.645 8.05.2 5.428-6.222 13.074-10.04 15.488-4.413 2.814-8.63 2.814-10.437 2.21-1.407-.402.2-5.026.2-8.247m-18.07 36.208c3.814-9.253 7.03-14.483 7.03-14.483 1.203-.403 7.224-.2 11.04 3.017 4.017 3.422 4.62 4.83 2.812 9.656-1.807 5.03-5.423 10.66-11.645 23.937-5.423 11.466-9.64 22.33-9.64 28.364 0 2.414.402 3.62 1.406 3.62 2.81 0 11.443-6.84 18.473-14.282 7.225-7.64 9.634-11.264 10.638-12.874.405-.4 1.208-.2 1.007.605-1.207 4.63-5.423 13.88-8.633 18.707-9.84 14.685-15.26 17.903-18.875 17.903-1.607 0-7.226-2.212-10.44-4.425-2.41-1.61-7.026-5.43-7.026-13.478 0-13.877 9.035-34.6 13.85-46.266" fill="#545454"/><path d="M291.088 219.67c2.612-1.21 5.222-2.617 8.432-4.83 8.636-6.032 13.653-11.265 16.464-17.096 3.014-6.037 4.218-10.862 2.01-10.862-2.813 0-9.637 4.02-15.26 11.264-5.02 6.435-9.034 13.68-11.646 21.524m-2.21 7.44c-.802 3.42-1.404 6.843-1.404 9.86 0 8.85 5.222 17.096 7.03 19.51 5.016 6.842 21.28 16.698 48.183 16.698 26.906 0 43.568-5.433 56.82-10.26 2.207-.803-1.808 5.028-3.613 6.838-3.014 3.02-26.1 16.296-46.18 17.705-18.87 1.41-27.105-2.615-32.124-4.226-7.83-2.414-29.915-21.12-38.345-34.396-5.223-8.25-6.628-19.716-3.215-33.797 3.215-13.074 8.834-23.534 16.466-32.383 5.62-6.44 12.244-10.058 17.465-9.856 7.028.202 18.472 10.058 20.883 14.685 3.012 5.63.603 15.688-8.033 23.938-8.03 7.644-20.278 13.075-33.93 15.688" fill="#545454"/><path d="M341.68 205.185c6.824-7.642 10.842-13.478 14.657-22.93.602-2.617 2.61-9.253 5.017-11.868 2.412 0 7.832.603 11.446 3.017 3.614 2.412 4.417 7.644 1.002 14.28-1.202 2.414-1.403 8.05-1.403 14.282 0 11.265 2.61 21.527 2.61 29.772 0 7.442-2.41 14.687-6.827 18.707-5.823 5.432-15.26 7.446-21.282 6.437-6.223-1.005-20.68-10.256-21.683-18.305-1.205-9.656 5.622-23.737 12.247-23.737 6.224 0 13.25 7.848 12.65 9.254-.603 1.408-3.013 1.408-6.024 5.23-3.815 4.63-5.02 10.058-5.02 13.477 0 2.62.402 4.027 1.607 4.832 3.413 2.01 18.47-.403 18.47-11.064 0-9.86-3.412-22.733-3.212-38.824-1.004 2.613-2.81 4.222-6.023 5.43-2.81 1.005-9.035 2.815-8.232 2.01" fill="#545454"/><g transform="translate(379.193 120.975)"><mask id="h" fill="#fff"><use xlink:href="#g"/></mask><path d="M12.68 13.806C15.893 6.363 16.294 1.133 17.5.53c1.605-.805 7.83.2 10.64 3.017 3.612 3.62 2.208 9.455.2 13.478-2.61 5.03-6.627 8.65-10.84 11.265-4.217 2.615-9.44 4.624-14.055 5.026-2.41.2-3.413-.6-3.413-1.406 0-1.61 6.224-3.62 12.648-18.104" fill="#545454" mask="url(#h)"/></g></g></svg>