<svg width="118" height="140" viewBox="0 0 118 140" xmlns="http://www.w3.org/2000/svg"><title>Left Notes</title><g fill="none" fill-rule="evenodd"><path d="M38.73 29.645c-.488-11.786-7.837-20.937-19.18-23.88l-4.413-1.15V61.79c-1.23-.364-2.554-.572-3.943-.572C5.01 61.218 0 65.163 0 70.028s5.01 8.81 11.194 8.81c6.182 0 11.194-3.945 11.194-8.81 0-.554-.073-1.092-.196-1.617V14.28c5.734 3.025 9.198 8.617 9.49 15.658.307 7.41-2.97 12.433-3.628 13.114-1.36 1.392-1.336 3.623.058 4.983 1.392 1.36 3.626 1.335 4.988-.058 1.59-1.624 6.04-8.48 5.63-18.33M69.122 72.748V64.84l32.378-7.92v7.423l-32.378 8.405zm39.433-24.81L62.067 59.312v54.74c-1.333-.44-2.797-.685-4.335-.685-6.182 0-11.193 3.943-11.193 8.81 0 4.864 5.01 8.808 11.192 8.808 5.503 0 10.067-3.126 11.008-7.243.236-.474.382-1 .382-1.566V80.03l32.378-8.406v32.92c-1.282-.4-2.675-.63-4.14-.63-6.18 0-11.193 3.945-11.193 8.81s5.012 8.81 11.194 8.81c6.184 0 11.195-3.945 11.195-8.81 0-.04-.007-.08-.007-.12 0-.025.007-.05.007-.076v-64.59z" fill="#EAC8C2"/><path d="M47.507 25.24C47.02 13.455 39.67 4.304 28.327 1.36L23.915.212v57.132c-1.28-.402-2.676-.63-4.14-.63-6.18 0-11.193 3.944-11.193 8.81 0 4.864 5.013 8.81 11.195 8.81 6.183 0 11.194-3.946 11.194-8.81V9.872c5.733 3.025 9.197 8.617 9.49 15.66.307 7.41-2.97 12.43-3.628 13.113-1.362 1.39-1.337 3.622.057 4.982 1.39 1.36 3.625 1.337 4.987-.057 1.59-1.624 6.04-8.482 5.63-18.33M78.22 81.515v-7.907l32.38-7.923v7.426l-32.38 8.405zm39.426 39.852c0-.025.008-.047.008-.072v-64.59L71.166 68.08v54.683c-1.282-.403-2.675-.63-4.14-.63-6.18 0-11.193 3.945-11.193 8.81s5.012 8.81 11.194 8.81c6.183 0 11.194-3.945 11.194-8.81V88.797l32.38-8.404v32.92c-1.283-.402-2.676-.63-4.14-.63-6.182 0-11.194 3.944-11.194 8.81 0 4.864 5.012 8.808 11.194 8.808 6.182 0 11.195-3.944 11.195-8.81 0-.04-.01-.08-.01-.123z" fill="#504F64"/></g></svg>