<svg width="392" height="238" viewBox="0 0 392 238" xmlns="http://www.w3.org/2000/svg"><title>Group 10</title><g fill="none" fill-rule="evenodd"><path d="M89.18 157.63c-3.59-11.804-3.99-27.807 2.593-52.012 5.784-21.002 12.167-35.605 19.15-51.61-3.592 3.602-9.775 8.203-21.943 24.204-12.168 16.004-21.343 30.81-26.13 55.214v-1.603c-.998 6.604-.998 10.202-.998 10.202-6.582-.2-11.968-3.2-12.766-8.6-.798-5.402 7.18-36.006 12.168-52.412 10.77-35.605 14.162-46.007 15.558-52.21 1.197-5 1.995-9.2.2-10.2-1.596-.803-11.77 2-29.92 21.802C28.54 60.61 22.955 86.615 22.955 97.82c0 7.798 2.792 11.8 2.194 12-3.192.6-10.772-1.2-14.56-4.802-3.99-3.8-4.59-8-4.59-12.803 0-6.2 1.6-19.802 10.972-36.807 7.78-14.203 20.345-28.206 30.518-36.005C60.456 9.4 68.235 7 72.225 7c3.99 0 22.54 12.403 22.94 18.404.398 7.4-8.778 27.803-17.954 55.21l-2.79 8.2c8.177-14.8 18.15-27.403 24.933-35.207 9.572-11.202 17.952-20.202 23.338-24.805 6.583.6 12.368 7.804 12.368 11.202 0 3-1.798 5.004-4.987 11.005-4.587 8.6-10.172 19.603-17.552 39.405-9.774 26.005-11.57 48.012-11.57 60.415 0 9.602 2.593 24.205 7.578 29.603 1.398 1.6-1.195 3.6-3.39 1.8-5.385-4.2-12.366-12.402-15.956-24.604" fill="#EAC8C2"/><path d="M152.412 42.405c0-5.2.398-13.802 1.396-15.203.997-1.4 3.19-2.6 7.178-2.2 5.987.6 11.37 4.2 11.57 8.004.2 5.4-6.182 13.003-9.974 15.403-4.386 2.797-8.575 2.797-10.37 2.197-1.4-.4.2-5 .2-8.202m-17.955 36.008c3.79-9.202 6.984-14.403 6.984-14.403 1.197-.4 7.18-.2 10.972 3 3.99 3.404 4.587 4.804 2.792 9.602-1.795 5-5.388 10.603-11.57 23.805-5.387 11.403-9.576 22.207-9.576 28.206 0 2.4.4 3.6 1.396 3.6 2.793 0 11.37-6.8 18.354-14.202 7.178-7.598 9.572-11.2 10.57-12.802.4-.4 1.2-.2 1 .6-1.2 4.604-5.39 13.803-8.578 18.604-9.777 14.603-15.16 17.804-18.753 17.804-1.595 0-7.178-2.2-10.37-4.4-2.396-1.6-6.98-5.402-6.98-13.404 0-13.8 8.975-34.407 13.76-46.01" fill="#EAC8C2"/><path d="M217.234 74.413c-2.593-.8-4.987-1.2-7.378-1.2-6.585 0-14.56 1.4-22.543 8-9.375 7.603-11.57 15.605-9.175 17.005 2.394 1.6 9.973 2.4 21.742-7.402 6.782-5.6 12.966-12.202 17.354-16.403m26.53-5.204c-.4 1.402-2.993.602-7.18.602-4.79 0-9.377 2-12.17 3.2.2 2-.2 4-.2 4-1.79-.6-3.188-1.4-4.586-1.8 1.2 4.802 1 10.603.6 12.804-.6 3-1.997 5-5.188 8.2-6.18 6.203-9.575 8.403-17.152 15.205-4.19 3.8-12.567 11.603-11.97 13.203.2.4 8.177-1.4 16.954.6 9.774 2.2 16.756 9.602 20.546 15.404 3.79 5.6 5.784 13.602 5.784 22.804 0 17.405-9.373 40.61-29.322 56.21-20.146 15.404-34.508 17.607-43.282 17.607-12.368 0-24.136-5.604-29.325-9.202-9.373-6.404-15.957-17.004-15.957-26.806 0-10.003 2.194-22.205 19.55-39.21 13.364-13.002 30.516-18.605 45.676-18.405 19.55-.2 28.125 9.204 28.125 19.606 0 10.003-5.585 21.606-17.752 21.606-4.586 0-6.782-2.403-6.583-3.203 3.593-2.598 13.564-8.8 13.564-20.402 0-7.4-4.787-10.6-11.567-10.6-8.78 0-24.935 5.397-40.296 23.003-15.36 17.404-23.136 37.808-11.368 46.808 12.166 9.405 38.1 1.4 58.243-14.402 16.755-13.2 28.922-34.807 28.922-52.01 0-9.803-3.39-14.002-6.183-16.002-2.99-2.2-8.977-3.2-18.352-2.2-5.386.6-12.966 3.6-14.562 3.6-2.593 0-5.782-1.6-9.372-7.204-2.396-3.598-2.995-5.198-2.995-8.2 0-3.2 13.962-13.202 13.962-13.202s-6.184-4.003-9.97-8.4c-3.394-3.802-5.39-8.605-5.39-13.204 0-7.2 5.19-14.403 11.97-20.007 5.786-4.8 16.555-9.4 25.332-9.4 7.382 0 10.77 1.4 13.963 3.4 1.994 1.2 3.792 3 5.188 4.602.2-.6.4-1.2.798-1.8 2.79-4.602 3.788-6.202 7.777-8.803 1.995-1.4 4.99-2.8 9.575-2.2 4.587.6 4.986 10.8 4.188 14.2" fill="#EAC8C2"/><path d="M276.076 20.403c2.994 2.6 4.79 5.2 4.79 7.8 0 3.002-2.195 9.203-4.192 14.202-5.784 14.205-17.154 41.01-29.122 72.215 6.984-10.002 23.138-29.204 35.705-45.61 3.19-4.2 3.59-5.6 7.183-5.6 3.59 0 10.97 4 10.97 8.003 0 4-2.994 8.8-6.385 15.203-6.383 12.003-15.556 29.004-15.556 41.606 0 3.8 1.196 6.004 2.193 6.004 2.59 0 11.17-7.204 18.15-14.805 4.59-5 8.776-9.6 11.968-14.402.4-.8 1.198-.2.998 1-.598 3.203-5.385 13.603-10.572 21.404-6.98 10.405-13.962 17.204-18.75 17.204-2.59 0-9.574-3.8-12.367-5.8-5.584-4.2-6.382-14.002-4.387-23.806 2.194-10.803 5.583-17.802 7.578-22.405-2.99 2.603-6.18 6.804-15.558 18.006-5.383 6.4-13.364 17.802-17.152 24.006-2.194 3.6-3.194 7.4-4.19 7.4-3.392 0-10.57-3-10.57-7.4 0-2.203 3.99-13.603 9.57-29.408 7.584-21.802 12.568-35.605 22.54-65.414 5.587-16.4 6.387-21.602 7.983-22.404 2.393 0 7.378 1.402 9.173 3.003" fill="#EAC8C2"/><path d="M330.134 46.008c4.986-13.403 7.378-19.404 8.178-22.405 1.197 0 7.78.4 12.367 4.6 4.587 4.202 3.39 8.803.597 14.602l-1.598 3.403c28.925-.4 36.9-3.203 41.69-3.603 1.397.8-.598 5.003-2.794 7.404-1.396 1.6-3.39 3.397-7.18 4.397-3.59 1-14.36 2.803-36.9 3.003-11.37 25.405-20.546 50.61-23.34 62.41-1.993 8.002-1.993 11.803-.796 11.803 2.393 0 9.175-3.6 16.952-10.8 6.186-5.603 12.766-13.605 13.965-14.805.798-.8 2.195-.2 1.596 1.2-2.396 5.804-8.178 15.406-13.963 22.805-8.377 10.802-13.564 13.002-17.154 13.002-2.593 0-9.575-3.598-12.766-6.198-2.793-2.4-3.59-4.804-3.59-9.402 0-5.802 3.19-18.804 6.38-29.006 5.986-18.808 9.577-28.007 14.364-41.21-42.287-1.403-88.963-9.602-106.716-19.404-1.596-.8 10.77-10.802 17.354-10.802 6.183 0 38.098 16.6 93.352 19.004" fill="#EAC8C2"/><path d="M83.18 151.63c-3.59-11.804-3.99-27.807 2.593-52.012 5.784-21.002 12.167-35.605 19.15-51.61-3.592 3.602-9.775 8.203-21.943 24.204-12.168 16.004-21.343 30.81-26.13 55.214v-1.603c-.998 6.604-.998 10.202-.998 10.202-6.582-.2-11.968-3.2-12.766-8.6-.798-5.402 7.18-36.006 12.168-52.412 10.77-35.605 14.162-46.007 15.558-52.21 1.197-5 1.995-9.2.2-10.2-1.596-.803-11.77 2-29.92 21.802C22.54 54.61 16.955 80.615 16.955 91.82c0 7.798 2.792 11.8 2.194 12-3.192.6-10.772-1.2-14.56-4.802-3.99-3.8-4.59-8-4.59-12.803 0-6.2 1.6-19.802 10.972-36.807 7.78-14.203 20.345-28.206 30.518-36.005C54.456 3.4 62.235 1 66.225 1c3.99 0 22.54 12.403 22.94 18.404.398 7.4-8.778 27.803-17.954 55.21l-2.79 8.2c8.177-14.8 18.15-27.403 24.933-35.207 9.572-11.202 17.952-20.202 23.338-24.805 6.583.6 12.368 7.804 12.368 11.202 0 3-1.798 5.004-4.987 11.005-4.587 8.6-10.172 19.603-17.552 39.405-9.774 26.005-11.57 48.012-11.57 60.415 0 9.602 2.593 24.205 7.578 29.603 1.398 1.6-1.195 3.6-3.39 1.8-5.385-4.2-12.366-12.402-15.956-24.604" fill="#545454"/><path d="M146.412 36.405c0-5.2.398-13.802 1.396-15.203.997-1.4 3.19-2.6 7.178-2.2 5.987.6 11.37 4.2 11.57 8.004.2 5.4-6.182 13.003-9.974 15.403-4.386 2.797-8.575 2.797-10.37 2.197-1.4-.4.2-5 .2-8.202m-17.955 36.008c3.79-9.202 6.984-14.403 6.984-14.403 1.197-.4 7.18-.2 10.972 3 3.99 3.404 4.587 4.804 2.792 9.602-1.795 5-5.388 10.603-11.57 23.805-5.387 11.403-9.576 22.207-9.576 28.206 0 2.4.4 3.6 1.396 3.6 2.793 0 11.37-6.8 18.354-14.202 7.178-7.598 9.572-11.2 10.57-12.802.4-.4 1.2-.2 1 .6-1.2 4.604-5.39 13.803-8.578 18.604-9.777 14.603-15.16 17.804-18.753 17.804-1.595 0-7.178-2.2-10.37-4.4-2.396-1.6-6.98-5.402-6.98-13.404 0-13.8 8.975-34.407 13.76-46.01" fill="#545454"/><path d="M211.234 68.413c-2.593-.8-4.987-1.2-7.378-1.2-6.585 0-14.56 1.4-22.543 8-9.375 7.603-11.57 15.605-9.175 17.005 2.394 1.6 9.973 2.4 21.742-7.402 6.782-5.6 12.966-12.202 17.354-16.403m26.53-5.204c-.4 1.402-2.993.602-7.18.602-4.79 0-9.377 2-12.17 3.2.2 2-.2 4-.2 4-1.79-.6-3.188-1.4-4.586-1.8 1.2 4.802 1 10.603.6 12.804-.6 3-1.997 5-5.188 8.2-6.18 6.203-9.575 8.403-17.152 15.205-4.19 3.8-12.567 11.603-11.97 13.203.2.4 8.177-1.4 16.954.6 9.774 2.2 16.756 9.602 20.546 15.404 3.79 5.6 5.784 13.602 5.784 22.804 0 17.405-9.373 40.61-29.322 56.21-20.146 15.404-34.508 17.607-43.282 17.607-12.368 0-24.136-5.604-29.325-9.202-9.373-6.404-15.957-17.004-15.957-26.806 0-10.003 2.194-22.205 19.55-39.21 13.364-13.002 30.516-18.605 45.676-18.405 19.55-.2 28.125 9.204 28.125 19.606 0 10.003-5.585 21.606-17.752 21.606-4.586 0-6.782-2.403-6.583-3.203 3.593-2.598 13.564-8.8 13.564-20.402 0-7.4-4.787-10.6-11.567-10.6-8.78 0-24.935 5.397-40.296 23.003-15.36 17.404-23.136 37.808-11.368 46.808 12.166 9.405 38.1 1.4 58.243-14.402 16.755-13.2 28.922-34.807 28.922-52.01 0-9.803-3.39-14.002-6.183-16.002-2.99-2.2-8.977-3.2-18.352-2.2-5.386.6-12.966 3.6-14.562 3.6-2.593 0-5.782-1.6-9.372-7.204-2.396-3.598-2.995-5.198-2.995-8.2 0-3.2 13.962-13.202 13.962-13.202s-6.184-4.003-9.97-8.4c-3.394-3.802-5.39-8.605-5.39-13.204 0-7.2 5.19-14.403 11.97-20.007 5.786-4.8 16.555-9.4 25.332-9.4 7.382 0 10.77 1.4 13.963 3.4 1.994 1.2 3.792 3 5.188 4.602.2-.6.4-1.2.798-1.8 2.79-4.602 3.788-6.202 7.777-8.803 1.995-1.4 4.99-2.8 9.575-2.2 4.587.6 4.986 10.8 4.188 14.2" fill="#545454"/><path d="M270.076 14.403c2.994 2.6 4.79 5.2 4.79 7.8 0 3.002-2.195 9.203-4.192 14.202-5.784 14.205-17.154 41.01-29.122 72.215 6.984-10.002 23.138-29.204 35.705-45.61 3.19-4.2 3.59-5.6 7.183-5.6 3.59 0 10.97 4 10.97 8.003 0 4-2.994 8.8-6.385 15.203-6.383 12.003-15.556 29.004-15.556 41.606 0 3.8 1.196 6.004 2.193 6.004 2.59 0 11.17-7.204 18.15-14.805 4.59-5 8.776-9.6 11.968-14.402.4-.8 1.198-.2.998 1-.598 3.203-5.385 13.603-10.572 21.404-6.98 10.405-13.962 17.204-18.75 17.204-2.59 0-9.574-3.8-12.367-5.8-5.584-4.2-6.382-14.002-4.387-23.806 2.194-10.803 5.583-17.802 7.578-22.405-2.99 2.603-6.18 6.804-15.558 18.006-5.383 6.4-13.364 17.802-17.152 24.006-2.194 3.6-3.194 7.4-4.19 7.4-3.392 0-10.57-3-10.57-7.4 0-2.203 3.99-13.603 9.57-29.408 7.584-21.802 12.568-35.605 22.54-65.414 5.587-16.4 6.387-21.602 7.983-22.404 2.393 0 7.378 1.402 9.173 3.003" fill="#545454"/><path d="M324.134 40.008c4.986-13.403 7.378-19.404 8.178-22.405 1.197 0 7.78.4 12.367 4.6 4.587 4.202 3.39 8.803.597 14.602l-1.598 3.403c28.925-.4 36.9-3.203 41.69-3.603 1.397.8-.598 5.003-2.794 7.404-1.396 1.6-3.39 3.397-7.18 4.397-3.59 1-14.36 2.803-36.9 3.003-11.37 25.405-20.546 50.61-23.34 62.41-1.993 8.002-1.993 11.803-.796 11.803 2.393 0 9.175-3.6 16.952-10.8 6.186-5.603 12.766-13.605 13.965-14.805.798-.8 2.195-.2 1.596 1.2-2.396 5.804-8.178 15.406-13.963 22.805-8.377 10.802-13.564 13.002-17.154 13.002-2.593 0-9.575-3.598-12.766-6.198-2.793-2.4-3.59-4.804-3.59-9.402 0-5.802 3.19-18.804 6.38-29.006 5.986-18.808 9.577-28.007 14.364-41.21-42.287-1.403-88.963-9.602-106.716-19.404-1.596-.8 10.77-10.802 17.354-10.802 6.183 0 38.098 16.6 93.352 19.004" fill="#545454"/><path d="M4.57-31.034c-4.053 1.395-8.467 2.627-13.1 3.666l10.036-12.55C-10.452-35.8-24.83-33.44-37.94-33.44c-7.495 0-14.526-.74-20.896-2.197-12.078-2.764-20.235-7.35-28.872-12.21-8.582-4.824-17.456-9.814-30.12-13.147-8.16-2.147-16.988-3.236-26.237-3.236-19.242 0-38.86 4.648-58.328 13.816l-16.34 3.874 122.15 129.29 28.998-36.266L4.57-31.034z" fill="#ED533C"/><path d="M111.92-78.084L91.906-99.296c2.095-2.528 3.554-5.594 4.168-8.95h29.31c-.84 11.67-5.81 22.206-13.462 30.162zM80.33-63.238V-92.52c2.204-.403 4.275-1.17 6.157-2.244l20.194 21.4c-7.385 5.747-16.46 9.414-26.35 10.126zM73.204-99.75l7.158-7.69c1.484-1.593 1.88-3.912 1.01-5.908-.87-1.994-2.84-3.284-5.018-3.284h-11.12c1.906-4.505 6.374-7.674 11.57-7.674 6.92 0 12.55 5.624 12.55 12.537 0 6.912-5.63 12.536-12.55 12.536-1.25 0-2.454-.176-3.6-.516zm.07 36.513C64.07-63.9 55.31-67.134 47.917-72.58l20.142-21.64c1.642.82 3.39 1.397 5.217 1.72v29.263zM3.16-34.847c-16.002 5.74-41.72 10.238-64.9 4.934-12.907-2.954-21.424-7.743-30.443-12.814-8.258-4.644-16.8-9.447-28.735-12.588-11.777-3.098-33.973-6.088-62.524 3.08-.057-.072-.1-.15-.162-.22l-51.207-57.13H72.724L3.16-34.847zM-93.587 69.088L-195.29-40.174c4.81-2.13 9.462-3.89 13.946-5.333L-104.156 39c.696.76 1.65 1.148 2.607 1.148.85 0 1.7-.303 2.377-.92 1.44-1.312 1.542-3.54.227-4.98l-74.846-81.94c23.223-5.942 41.14-3.423 51.077-.807 11.06 2.91 18.838 7.285 27.072 11.914 9.058 5.094 18.426 10.362 32.327 13.542 7.768 1.777 15.792 2.524 23.676 2.524 11.904 0 23.468-1.71 33.32-4.143L-93.587 69.09zm-166.31-178.674h15.614l53.665 59.87c-3.177 1.208-6.423 2.572-9.736 4.1l-59.543-63.97zm299.164-33.184l20.827 20.806c-1.003 1.635-1.77 3.43-2.264 5.33H28.328c.986-9.872 4.928-18.887 10.94-26.136zm34.008-17.534v29.283c-3.152.575-6.037 1.905-8.47 3.797l-20.66-20.637c7.83-7.075 17.967-11.64 29.13-12.442zm7.055 0c10.785.776 20.604 5.068 28.317 11.74l-20.713 20.69c-2.242-1.552-4.82-2.64-7.604-3.147V-160.3zm45.054 45.01h-29.31c-.51-2.782-1.6-5.358-3.152-7.598l20.713-20.69c6.676 7.705 10.973 17.514 11.75 28.287zm-48.58-52.198c-29.116 0-53.08 22.403-55.555 50.858h-262.38l-58.783-65.58h-58.71c-1.95 0-3.528 1.577-3.528 3.523 0 1.948 1.578 3.525 3.526 3.525h55.56l52.465 58.533h-12.926c-2.178 0-4.15 1.29-5.02 3.284-.868 1.996-.472 4.315 1.012 5.908l169.94 182.573c.146.157.32.282.48.42v122.582h-56.11c-1.95 0-3.53 1.577-3.53 3.524 0 1.945 1.58 3.522 3.53 3.522h119.752c1.95 0 3.528-1.577 3.528-3.523 0-1.948-1.58-3.525-3.528-3.525h-56.586V75.552c.162-.138.335-.264.48-.42l96.75-103.94c.22-.084.452-.165.668-.25l-.128-.33 35.37-38c9.664 7.342 21.443 11.338 33.72 11.338 30.756 0 55.78-24.996 55.78-55.72s-25.024-55.72-55.78-55.72z" fill="#504F64"/></g></svg>