<svg width="139" height="125" viewBox="0 0 139 125" xmlns="http://www.w3.org/2000/svg"><title>Right Notes</title><g fill="none" fill-rule="evenodd"><path d="M129.803 75.422c-.488-11.786-7.836-20.937-19.178-23.882l-4.414-1.147v57.174c-1.228-.364-2.553-.572-3.943-.572-6.182 0-11.193 3.944-11.193 8.81 0 4.864 5.01 8.81 11.193 8.81s11.195-3.946 11.195-8.81c0-.554-.073-1.092-.196-1.617V60.055c5.734 3.024 9.198 8.616 9.49 15.658.307 7.41-2.972 12.433-3.628 13.114-1.36 1.392-1.337 3.622.058 4.982 1.392 1.36 3.626 1.335 4.988-.058 1.59-1.625 6.04-8.482 5.63-18.33M22.88 25.467V17.56l32.38-7.922v7.424l-32.38 8.405zM62.315.657L15.826 12.03v54.74c-1.333-.44-2.797-.684-4.335-.684-6.18 0-11.193 3.943-11.193 8.81 0 4.864 5.012 8.808 11.194 8.808 5.504 0 10.068-3.126 11.01-7.243.235-.472.38-1 .38-1.565V32.748l32.38-8.405v32.92c-1.283-.4-2.676-.63-4.14-.63-6.182 0-11.195 3.945-11.195 8.81 0 4.866 5.013 8.81 11.195 8.81s11.194-3.944 11.194-8.81c0-.04-.007-.08-.007-.12 0-.025.007-.05.007-.076V.657z" fill="#EAC8C2"/><path d="M138.58 71.017c-.487-11.786-7.836-20.937-19.178-23.88l-4.414-1.148v57.13c-1.28-.4-2.676-.628-4.14-.628-6.18 0-11.193 3.944-11.193 8.81 0 4.864 5.012 8.808 11.194 8.808 6.182 0 11.193-3.944 11.193-8.81V55.65c5.734 3.025 9.198 8.617 9.49 15.658.308 7.41-2.97 12.433-3.628 13.114-1.36 1.392-1.336 3.623.058 4.983 1.392 1.36 3.626 1.336 4.988-.058 1.59-1.624 6.04-8.482 5.63-18.33M31.98 34.234v-7.907l32.378-7.923v7.426L31.98 34.234zm39.425 39.852c0-.025.007-.047.007-.072V9.424L24.925 20.798v54.684c-1.282-.403-2.675-.63-4.14-.63-6.18 0-11.194 3.945-11.194 8.81s5.014 8.81 11.196 8.81c6.182 0 11.194-3.945 11.194-8.81V41.515l32.378-8.404v32.92c-1.282-.4-2.675-.63-4.14-.63-6.182 0-11.193 3.945-11.193 8.81s5.01 8.81 11.194 8.81c6.18 0 11.193-3.945 11.193-8.81 0-.04-.008-.082-.008-.124z" fill="#504F64"/></g></svg>