<svg width="546" height="452" viewBox="0 0 546 452" xmlns="http://www.w3.org/2000/svg" xmlns:xlink="http://www.w3.org/1999/xlink"><title>Group 10</title><defs><path id="a" d="M142.102.275H.002v179.33h142.1V.275z"/><path id="c" d="M30.37 33.347V.262H.032v33.085H30.37z"/><path id="e" d="M142.102.275H.002v179.33h142.1V.275z"/><path id="g" d="M30.37 33.347V.262H.032v33.085H30.37z"/></defs><g fill="none" fill-rule="evenodd"><path d="M157.31 392.09c0 15.82-34.293 28.647-76.597 28.647-42.303 0-76.598-12.827-76.598-28.647 0-15.82 34.295-28.646 76.598-28.646 42.304 0 76.597 12.826 76.597 28.646" fill="#81CFD3"/><path d="M157.31 381.198c0 15.82-34.293 28.646-76.597 28.646-42.303 0-76.598-12.826-76.598-28.646S38.41 352.55 80.713 352.55c42.304 0 76.597 12.828 76.597 28.648" fill="#EAF5F6"/><path d="M118.667 332.164v45.094l-73.605 14.806V346.97l34.943-27.072s19.28-12.922 38.662 12.266" fill="#EAC8C2"/><path fill="#ED533C" d="M45.748 366.347v7.65l72.233-15.05V351.3M106.262 316.666c0 5.25-4.26 9.506-9.516 9.506-5.254 0-9.514-4.257-9.514-9.506 0-5.25 4.26-9.506 9.514-9.506 5.256 0 9.516 4.257 9.516 9.506"/><path d="M80.713 406.32c-43.06 0-73.07-13.24-73.07-25.122 0-7.785 12.895-16.15 33.892-20.993v36.16l80.66-16.222v-19.38c19.63 4.91 31.588 12.94 31.588 20.435 0 11.883-30.01 25.12-73.07 25.12zm72.22-10.727c-5.14 10.837-33.36 21.62-72.22 21.62s-67.08-10.783-72.22-21.62c12.704 10.715 39.59 17.774 72.22 17.774 32.628 0 59.515-7.06 72.22-17.775zM48.59 379.14l66.55-13.386v8.62L48.59 387.76v-8.62zm0-13.018l66.55-13.158v5.6L48.59 371.95v-5.828zm0-16.267l66.55-13.386v9.31l-66.55 13.158v-9.083zm33.453-27.075c.302-.19 1.218-.72 2.61-1.26 1.932 4.786 6.62 8.176 12.094 8.176 3.958 0 7.504-1.78 9.898-4.568 1.78 1.274 3.6 2.842 5.444 4.765L59.103 340.55l22.94-17.77zm14.704-12.096c3.302 0 5.987 2.683 5.987 5.982 0 3.298-2.685 5.982-5.987 5.982-3.303 0-5.988-2.684-5.988-5.982 0-3.3 2.684-5.982 5.987-5.982zm63.025 75.963c.69-1.764 1.065-3.582 1.065-5.45 0-12.152-15.144-22.316-38.643-27.795v-22.434l-.73-.95c-3.965-5.153-7.96-8.816-11.837-11.396.096-.64.162-1.29.162-1.956 0-7.183-5.852-13.03-13.043-13.03-6.42 0-11.76 4.665-12.834 10.777-3.615 1.1-5.805 2.514-5.873 2.56l-36.505 28.27v7.637C16.722 358.22.588 368.65.588 381.198c0 1.867.375 3.685 1.065 5.45v-.004c-.69 1.763-1.065 3.58-1.065 5.447 0 18.34 34.446 32.17 80.125 32.17 45.678 0 80.124-13.83 80.124-32.17 0-1.866-.375-3.683-1.064-5.446v.003z" fill="#504F64"/><path d="M243.18 371.63c-3.59-11.804-3.99-27.807 2.593-52.012 5.784-21.002 12.167-35.605 19.15-51.61-3.592 3.602-9.775 8.203-21.943 24.204-12.168 16.004-21.343 30.81-26.13 55.214v-1.603c-.998 6.604-.998 10.202-.998 10.202-6.582-.2-11.968-3.2-12.766-8.6-.798-5.402 7.18-36.006 12.168-52.412 10.77-35.605 14.162-46.007 15.558-52.21 1.197-5 1.995-9.2.2-10.2-1.596-.803-11.77 2-29.92 21.802-18.55 20.206-24.136 46.21-24.136 57.414 0 7.798 2.792 11.8 2.194 12-3.192.6-10.772-1.2-14.56-4.802-3.99-3.8-4.59-8-4.59-12.803 0-6.2 1.6-19.802 10.972-36.807 7.78-14.203 20.345-28.206 30.518-36.005C214.456 223.4 222.235 221 226.225 221c3.99 0 22.54 12.403 22.94 18.404.398 7.4-8.778 27.803-17.954 55.21l-2.79 8.2c8.177-14.8 18.15-27.403 24.933-35.207 9.572-11.202 17.952-20.202 23.338-24.805 6.583.6 12.368 7.804 12.368 11.202 0 3-1.798 5.004-4.987 11.005-4.587 8.6-10.172 19.603-17.552 39.405-9.774 26.005-11.57 48.012-11.57 60.415 0 9.602 2.593 24.205 7.578 29.603 1.398 1.6-1.195 3.6-3.39 1.8-5.385-4.2-12.366-12.402-15.956-24.604" fill="#EAC8C2"/><path d="M306.412 256.405c0-5.2.398-13.802 1.396-15.203.997-1.4 3.19-2.6 7.178-2.2 5.987.6 11.37 4.2 11.57 8.004.2 5.4-6.182 13.003-9.974 15.403-4.386 2.797-8.575 2.797-10.37 2.197-1.4-.4.2-5 .2-8.202m-17.955 36.008c3.79-9.202 6.984-14.403 6.984-14.403 1.197-.4 7.18-.2 10.972 3 3.99 3.404 4.587 4.804 2.792 9.602-1.795 5-5.388 10.603-11.57 23.805-5.387 11.403-9.576 22.207-9.576 28.206 0 2.4.4 3.6 1.396 3.6 2.793 0 11.37-6.8 18.354-14.202 7.178-7.598 9.572-11.2 10.57-12.802.4-.4 1.2-.2 1 .6-1.2 4.604-5.39 13.803-8.578 18.604-9.777 14.603-15.16 17.804-18.753 17.804-1.595 0-7.178-2.2-10.37-4.4-2.396-1.6-6.98-5.402-6.98-13.404 0-13.8 8.975-34.407 13.76-46.01" fill="#EAC8C2"/><path d="M371.234 288.413c-2.593-.8-4.987-1.2-7.378-1.2-6.585 0-14.56 1.4-22.543 8-9.375 7.603-11.57 15.605-9.175 17.005 2.394 1.6 9.973 2.4 21.742-7.402 6.782-5.6 12.966-12.202 17.354-16.403m26.53-5.204c-.4 1.402-2.993.602-7.18.602-4.79 0-9.377 2-12.17 3.2.2 2-.2 4-.2 4-1.79-.6-3.188-1.4-4.586-1.8 1.2 4.802 1 10.603.6 12.804-.6 3-1.997 5-5.188 8.2-6.18 6.203-9.575 8.403-17.152 15.205-4.19 3.8-12.567 11.603-11.97 13.203.2.4 8.177-1.4 16.954.6 9.774 2.2 16.756 9.602 20.546 15.404 3.79 5.6 5.784 13.602 5.784 22.804 0 17.405-9.373 40.61-29.322 56.21-20.146 15.404-34.508 17.607-43.282 17.607-12.368 0-24.136-5.604-29.325-9.202-9.373-6.404-15.957-17.004-15.957-26.806 0-10.003 2.194-22.205 19.55-39.21 13.364-13.002 30.516-18.605 45.676-18.405 19.55-.2 28.125 9.204 28.125 19.606 0 10.003-5.585 21.606-17.752 21.606-4.586 0-6.782-2.403-6.583-3.203 3.593-2.598 13.564-8.8 13.564-20.402 0-7.4-4.787-10.6-11.567-10.6-8.78 0-24.935 5.397-40.296 23.003-15.36 17.404-23.136 37.808-11.368 46.808 12.166 9.405 38.1 1.4 58.243-14.402 16.755-13.2 28.922-34.807 28.922-52.01 0-9.803-3.39-14.002-6.183-16.002-2.99-2.2-8.977-3.2-18.352-2.2-5.386.6-12.966 3.6-14.562 3.6-2.593 0-5.782-1.6-9.372-7.204-2.396-3.598-2.995-5.198-2.995-8.2 0-3.2 13.962-13.202 13.962-13.202s-6.184-4.003-9.97-8.4c-3.394-3.802-5.39-8.605-5.39-13.204 0-7.2 5.19-14.403 11.97-20.007 5.786-4.8 16.555-9.4 25.332-9.4 7.382 0 10.77 1.4 13.963 3.4 1.994 1.2 3.792 3 5.188 4.602.2-.6.4-1.2.798-1.8 2.79-4.602 3.788-6.202 7.777-8.803 1.995-1.4 4.99-2.8 9.575-2.2 4.587.6 4.986 10.8 4.188 14.2" fill="#EAC8C2"/><path d="M430.076 234.403c2.994 2.6 4.79 5.2 4.79 7.8 0 3.002-2.195 9.203-4.192 14.202-5.784 14.205-17.154 41.01-29.122 72.215 6.984-10.002 23.138-29.204 35.705-45.61 3.19-4.2 3.59-5.6 7.183-5.6 3.59 0 10.97 4 10.97 8.003 0 4-2.994 8.8-6.385 15.203-6.383 12.003-15.556 29.004-15.556 41.606 0 3.8 1.196 6.004 2.193 6.004 2.59 0 11.17-7.204 18.15-14.805 4.59-5 8.776-9.6 11.968-14.402.4-.8 1.198-.2.998 1-.598 3.203-5.385 13.603-10.572 21.404-6.98 10.405-13.962 17.204-18.75 17.204-2.59 0-9.574-3.8-12.367-5.8-5.584-4.2-6.382-14.002-4.387-23.806 2.194-10.803 5.583-17.802 7.578-22.405-2.99 2.603-6.18 6.804-15.558 18.006-5.383 6.4-13.364 17.802-17.152 24.006-2.194 3.6-3.194 7.4-4.19 7.4-3.392 0-10.57-3-10.57-7.4 0-2.203 3.99-13.603 9.57-29.408 7.584-21.802 12.568-35.605 22.54-65.414 5.587-16.4 6.387-21.602 7.983-22.404 2.393 0 7.378 1.402 9.173 3.003" fill="#EAC8C2"/><path d="M484.134 260.008c4.986-13.403 7.378-19.404 8.178-22.405 1.197 0 7.78.4 12.367 4.6 4.587 4.202 3.39 8.803.597 14.602l-1.598 3.403c28.925-.4 36.9-3.203 41.69-3.603 1.397.8-.598 5.003-2.794 7.404-1.396 1.6-3.39 3.397-7.18 4.397-3.59 1-14.36 2.803-36.9 3.003-11.37 25.405-20.546 50.61-23.34 62.41-1.993 8.002-1.993 11.803-.796 11.803 2.393 0 9.175-3.6 16.952-10.8 6.186-5.603 12.766-13.605 13.965-14.805.798-.8 2.195-.2 1.596 1.2-2.396 5.804-8.178 15.406-13.963 22.805-8.377 10.802-13.564 13.002-17.154 13.002-2.593 0-9.575-3.598-12.766-6.198-2.793-2.4-3.59-4.804-3.59-9.402 0-5.802 3.19-18.804 6.38-29.006 5.986-18.808 9.577-28.007 14.364-41.21-42.287-1.403-88.963-9.602-106.716-19.404-1.596-.8 10.77-10.802 17.354-10.802 6.183 0 38.098 16.6 93.352 19.004" fill="#EAC8C2"/><path d="M237.18 365.63c-3.59-11.804-3.99-27.807 2.593-52.012 5.784-21.002 12.167-35.605 19.15-51.61-3.592 3.602-9.775 8.203-21.943 24.204-12.168 16.004-21.343 30.81-26.13 55.214v-1.603c-.998 6.604-.998 10.202-.998 10.202-6.582-.2-11.968-3.2-12.766-8.6-.798-5.402 7.18-36.006 12.168-52.412 10.77-35.605 14.162-46.007 15.558-52.21 1.197-5 1.995-9.2.2-10.2-1.596-.803-11.77 2-29.92 21.802-18.55 20.206-24.136 46.21-24.136 57.414 0 7.798 2.792 11.8 2.194 12-3.192.6-10.772-1.2-14.56-4.802-3.99-3.8-4.59-8-4.59-12.803 0-6.2 1.6-19.802 10.972-36.807 7.78-14.203 20.345-28.206 30.518-36.005C208.456 217.4 216.235 215 220.225 215c3.99 0 22.54 12.403 22.94 18.404.398 7.4-8.778 27.803-17.954 55.21l-2.79 8.2c8.177-14.8 18.15-27.403 24.933-35.207 9.572-11.202 17.952-20.202 23.338-24.805 6.583.6 12.368 7.804 12.368 11.202 0 3-1.798 5.004-4.987 11.005-4.587 8.6-10.172 19.603-17.552 39.405-9.774 26.005-11.57 48.012-11.57 60.415 0 9.602 2.593 24.205 7.578 29.603 1.398 1.6-1.195 3.6-3.39 1.8-5.385-4.2-12.366-12.402-15.956-24.604" fill="#545454"/><path d="M300.412 250.405c0-5.2.398-13.802 1.396-15.203.997-1.4 3.19-2.6 7.178-2.2 5.987.6 11.37 4.2 11.57 8.004.2 5.4-6.182 13.003-9.974 15.403-4.386 2.797-8.575 2.797-10.37 2.197-1.4-.4.2-5 .2-8.202m-17.955 36.008c3.79-9.202 6.984-14.403 6.984-14.403 1.197-.4 7.18-.2 10.972 3 3.99 3.404 4.587 4.804 2.792 9.602-1.795 5-5.388 10.603-11.57 23.805-5.387 11.403-9.576 22.207-9.576 28.206 0 2.4.4 3.6 1.396 3.6 2.793 0 11.37-6.8 18.354-14.202 7.178-7.598 9.572-11.2 10.57-12.802.4-.4 1.2-.2 1 .6-1.2 4.604-5.39 13.803-8.578 18.604-9.777 14.603-15.16 17.804-18.753 17.804-1.595 0-7.178-2.2-10.37-4.4-2.396-1.6-6.98-5.402-6.98-13.404 0-13.8 8.975-34.407 13.76-46.01" fill="#545454"/><path d="M365.234 282.413c-2.593-.8-4.987-1.2-7.378-1.2-6.585 0-14.56 1.4-22.543 8-9.375 7.603-11.57 15.605-9.175 17.005 2.394 1.6 9.973 2.4 21.742-7.402 6.782-5.6 12.966-12.202 17.354-16.403m26.53-5.204c-.4 1.402-2.993.602-7.18.602-4.79 0-9.377 2-12.17 3.2.2 2-.2 4-.2 4-1.79-.6-3.188-1.4-4.586-1.8 1.2 4.802 1 10.603.6 12.804-.6 3-1.997 5-5.188 8.2-6.18 6.203-9.575 8.403-17.152 15.205-4.19 3.8-12.567 11.603-11.97 13.203.2.4 8.177-1.4 16.954.6 9.774 2.2 16.756 9.602 20.546 15.404 3.79 5.6 5.784 13.602 5.784 22.804 0 17.405-9.373 40.61-29.322 56.21-20.146 15.404-34.508 17.607-43.282 17.607-12.368 0-24.136-5.604-29.325-9.202-9.373-6.404-15.957-17.004-15.957-26.806 0-10.003 2.194-22.205 19.55-39.21 13.364-13.002 30.516-18.605 45.676-18.405 19.55-.2 28.125 9.204 28.125 19.606 0 10.003-5.585 21.606-17.752 21.606-4.586 0-6.782-2.403-6.583-3.203 3.593-2.598 13.564-8.8 13.564-20.402 0-7.4-4.787-10.6-11.567-10.6-8.78 0-24.935 5.397-40.296 23.003-15.36 17.404-23.136 37.808-11.368 46.808 12.166 9.405 38.1 1.4 58.243-14.402 16.755-13.2 28.922-34.807 28.922-52.01 0-9.803-3.39-14.002-6.183-16.002-2.99-2.2-8.977-3.2-18.352-2.2-5.386.6-12.966 3.6-14.562 3.6-2.593 0-5.782-1.6-9.372-7.204-2.396-3.598-2.995-5.198-2.995-8.2 0-3.2 13.962-13.202 13.962-13.202s-6.184-4.003-9.97-8.4c-3.394-3.802-5.39-8.605-5.39-13.204 0-7.2 5.19-14.403 11.97-20.007 5.786-4.8 16.555-9.4 25.332-9.4 7.382 0 10.77 1.4 13.963 3.4 1.994 1.2 3.792 3 5.188 4.602.2-.6.4-1.2.798-1.8 2.79-4.602 3.788-6.202 7.777-8.803 1.995-1.4 4.99-2.8 9.575-2.2 4.587.6 4.986 10.8 4.188 14.2" fill="#545454"/><path d="M424.076 228.403c2.994 2.6 4.79 5.2 4.79 7.8 0 3.002-2.195 9.203-4.192 14.202-5.784 14.205-17.154 41.01-29.122 72.215 6.984-10.002 23.138-29.204 35.705-45.61 3.19-4.2 3.59-5.6 7.183-5.6 3.59 0 10.97 4 10.97 8.003 0 4-2.994 8.8-6.385 15.203-6.383 12.003-15.556 29.004-15.556 41.606 0 3.8 1.196 6.004 2.193 6.004 2.59 0 11.17-7.204 18.15-14.805 4.59-5 8.776-9.6 11.968-14.402.4-.8 1.198-.2.998 1-.598 3.203-5.385 13.603-10.572 21.404-6.98 10.405-13.962 17.204-18.75 17.204-2.59 0-9.574-3.8-12.367-5.8-5.584-4.2-6.382-14.002-4.387-23.806 2.194-10.803 5.583-17.802 7.578-22.405-2.99 2.603-6.18 6.804-15.558 18.006-5.383 6.4-13.364 17.802-17.152 24.006-2.194 3.6-3.194 7.4-4.19 7.4-3.392 0-10.57-3-10.57-7.4 0-2.203 3.99-13.603 9.57-29.408 7.584-21.802 12.568-35.605 22.54-65.414 5.587-16.4 6.387-21.602 7.983-22.404 2.393 0 7.378 1.402 9.173 3.003" fill="#545454"/><path d="M478.134 254.008c4.986-13.403 7.378-19.404 8.178-22.405 1.197 0 7.78.4 12.367 4.6 4.587 4.202 3.39 8.803.597 14.602l-1.598 3.403c28.925-.4 36.9-3.203 41.69-3.603 1.397.8-.598 5.003-2.794 7.404-1.396 1.6-3.39 3.397-7.18 4.397-3.59 1-14.36 2.803-36.9 3.003-11.37 25.405-20.546 50.61-23.34 62.41-1.993 8.002-1.993 11.803-.796 11.803 2.393 0 9.175-3.6 16.952-10.8 6.186-5.603 12.766-13.605 13.965-14.805.798-.8 2.195-.2 1.596 1.2-2.396 5.804-8.178 15.406-13.963 22.805-8.377 10.802-13.564 13.002-17.154 13.002-2.593 0-9.575-3.598-12.766-6.198-2.793-2.4-3.59-4.804-3.59-9.402 0-5.802 3.19-18.804 6.38-29.006 5.986-18.808 9.577-28.007 14.364-41.21-42.287-1.403-88.963-9.602-106.716-19.404-1.596-.8 10.77-10.802 17.354-10.802 6.183 0 38.098 16.6 93.352 19.004" fill="#545454"/><g transform="translate(18 -.21)"><mask id="b" fill="#fff"><use xlink:href="#a"/></mask><path d="M84.917 2.686c5.22 3.62 6.425 6.035 6.425 12.268 0 9.053-9.44 35.605-17.467 57.733-10.24 28.363-25.298 61.154-31.123 70.807 0 0 24.696-1.408 49.19 6.437 22.288 7.245 42.366 18.91 49.993 27.158.803.804-1.203 4.425-7.828 1.207-6.425-3.018-23.09-12.472-43.97-17.1-21.686-4.422-49.19-4.22-60.836-.602-2.406 2.615-5.418 5.632-8.83 8.046-4.22 3.02-7.83 3.622-9.84 3.622-3.814 0-6.828-3.824-8.03-6.84-2.81-6.838-2.81-13.077-2.41-14.083.402-1.006 3.41-2.817 8.232-4.02 4.217-1.007 15.66-2.818 15.66-2.818 5.018-6.64 10.642-17.704 22.89-49.283C62.23 55.59 73.27 8.92 73.27.47c1.205-.602 8.63.202 11.645 2.216" fill="#81CFD3" mask="url(#b)"/></g><path d="M157.928 76.702c-3.212-1.81-4.617-2.012-6.023-2.012-6.224 0-11.846 5.434-18.07 14.283-6.826 9.856-11.444 22.932-13.05 32.185-1.004 6.236-.602 8.448.803 8.448 2.008 0 23.692-26.552 32.726-45.46 1.205-2.614 2.41-5.23 3.614-7.444m5.622 81.672c-5.02 0-11.043-3.824-14.054-7.445-3.413-4.024-6.425-8.852-7.228-17.9-1.004-10.263 1.807-21.125 2.008-22.13-6.024 11.264-16.263 29.77-19.676 29.77-5.622 0-11.846-3.822-14.857-8.245-3.414-5.03-2.61-15.29-1.004-23.94 2.207-11.265 6.624-23.334 15.258-34.8 7.227-9.656 15.258-12.875 20.478-12.875 4.82 0 11.846 5.23 16.062 9.857 1.205-2.612 2.008-4.828 2.61-6.638.2-.806 4.618-.605 8.03 1.81 4.017 2.818 5.82 6.235 5.82 8.85 0 2.615-2.405 5.635-7.826 16.696-5.42 11.064-13.452 31.582-13.25 45.06.2 12.27 4.014 17.3 9.837 19.713.6.2.4 2.214-2.21 2.214M222.374 76.5c-3.012-1.61-4.417-1.81-5.822-1.81-6.224 0-11.846 5.434-18.07 14.283-6.826 9.856-11.043 22.127-12.65 31.383-1.003 6.233-.6 8.446.804 8.446 2.008 0 23.29-25.748 32.325-44.657.804-1.607 2.01-4.222 3.414-7.644m-13.25-15.69c4.818 0 11.443 5.03 15.86 9.455 6.023-14.48 14.255-36.21 18.27-51.896.2-.806 3.815-.404 7.63 1.407 3.812 1.808 6.224 5.227 5.622 11.466-1.004 10.862-12.65 36.208-21.885 57.528-5.22 11.87-10.84 25.146-12.246 31.985-1.205 6.035-.803 8.65.402 9.053 1.204.402 8.633-4.024 17.668-13.277 7.63-7.844 11.042-12.873 11.645-13.88.2-.4 1.002-.2 1.002.605 0 1.408-3.413 10.058-8.633 18.707-3.414 5.633-12.65 17.903-18.874 17.903-4.216 0-10.24-4.023-13.45-6.836-3.415-3.02-4.62-8.654-4.418-12.876.2-4.427 1.003-8.25 1.204-9.255-6.023 11.264-15.86 28.965-19.274 28.965-5.622 0-11.846-3.822-14.857-8.245-3.412-5.03-2.61-15.29-1.003-23.937 2.208-11.268 6.224-22.532 14.857-33.998 7.228-9.656 15.26-12.875 20.48-12.875" fill="#81CFD3"/><path d="M279.997 39.488c0-5.23.402-13.88 1.406-15.288 1.003-1.408 3.212-2.615 7.225-2.213 6.026.603 11.444 4.224 11.645 8.05.2 5.428-6.222 13.074-10.04 15.488-4.413 2.814-8.63 2.814-10.437 2.21-1.407-.402.2-5.026.2-8.247m-18.07 36.208c3.814-9.253 7.03-14.483 7.03-14.483 1.203-.403 7.224-.2 11.04 3.017 4.017 3.422 4.62 4.83 2.812 9.656-1.807 5.03-5.423 10.66-11.645 23.937-5.423 11.466-9.64 22.33-9.64 28.364 0 2.414.402 3.62 1.406 3.62 2.81 0 11.443-6.84 18.473-14.282 7.225-7.64 9.634-11.264 10.638-12.874.405-.4 1.208-.2 1.007.605-1.207 4.63-5.423 13.88-8.633 18.707-9.84 14.685-15.26 17.903-18.875 17.903-1.607 0-7.226-2.212-10.44-4.425-2.41-1.61-7.026-5.43-7.026-13.478 0-13.877 9.035-34.6 13.85-46.266" fill="#81CFD3"/><path d="M304.088 105.67c2.612-1.21 5.222-2.617 8.432-4.83 8.636-6.032 13.653-11.265 16.464-17.096 3.014-6.037 4.218-10.862 2.01-10.862-2.813 0-9.637 4.02-15.26 11.264-5.02 6.435-9.034 13.68-11.646 21.524m-2.21 7.44c-.802 3.42-1.404 6.843-1.404 9.86 0 8.85 5.222 17.096 7.03 19.51 5.016 6.842 21.28 16.698 48.183 16.698 26.906 0 43.568-5.433 56.82-10.26 2.207-.803-1.808 5.028-3.613 6.838-3.014 3.02-26.1 16.296-46.18 17.705-18.87 1.41-27.105-2.615-32.124-4.226-7.83-2.414-29.915-21.12-38.345-34.396-5.223-8.25-6.628-19.716-3.215-33.797 3.215-13.074 8.834-23.534 16.466-32.383 5.62-6.44 12.244-10.058 17.465-9.856 7.028.202 18.472 10.058 20.883 14.685 3.012 5.63.603 15.688-8.033 23.938-8.03 7.644-20.278 13.075-33.93 15.688" fill="#81CFD3"/><path d="M354.68 91.185c6.824-7.642 10.842-13.478 14.657-22.93.602-2.617 2.61-9.253 5.017-11.868 2.412 0 7.832.603 11.446 3.017 3.614 2.412 4.417 7.644 1.002 14.28-1.202 2.414-1.403 8.05-1.403 14.282 0 11.265 2.61 21.527 2.61 29.772 0 7.442-2.41 14.687-6.827 18.707-5.823 5.432-15.26 7.446-21.282 6.437-6.223-1.005-20.68-10.256-21.683-18.305-1.205-9.656 5.622-23.737 12.247-23.737 6.224 0 13.25 7.848 12.65 9.254-.603 1.408-3.013 1.408-6.024 5.23-3.815 4.63-5.02 10.058-5.02 13.477 0 2.62.402 4.027 1.607 4.832 3.413 2.01 18.47-.403 18.47-11.064 0-9.86-3.412-22.733-3.212-38.824-1.004 2.613-2.81 4.222-6.023 5.43-2.81 1.005-9.035 2.815-8.232 2.01" fill="#81CFD3"/><g transform="translate(392.193 6.975)"><mask id="d" fill="#fff"><use xlink:href="#c"/></mask><path d="M12.68 13.806C15.893 6.363 16.294 1.133 17.5.53c1.605-.805 7.83.2 10.64 3.017 3.612 3.62 2.208 9.455.2 13.478-2.61 5.03-6.627 8.65-10.84 11.265-4.217 2.615-9.44 4.624-14.055 5.026-2.41.2-3.413-.6-3.413-1.406 0-1.61 6.224-3.62 12.648-18.104" fill="#81CFD3" mask="url(#d)"/></g><g transform="translate(23 4.79)"><mask id="f" fill="#fff"><use xlink:href="#e"/></mask><path d="M84.917 2.686c5.22 3.62 6.425 6.035 6.425 12.268 0 9.053-9.44 35.605-17.467 57.733-10.24 28.363-25.298 61.154-31.123 70.807 0 0 24.696-1.408 49.19 6.437 22.288 7.245 42.366 18.91 49.993 27.158.803.804-1.203 4.425-7.828 1.207-6.425-3.018-23.09-12.472-43.97-17.1-21.686-4.422-49.19-4.22-60.836-.602-2.406 2.615-5.418 5.632-8.83 8.046-4.22 3.02-7.83 3.622-9.84 3.622-3.814 0-6.828-3.824-8.03-6.84-2.81-6.838-2.81-13.077-2.41-14.083.402-1.006 3.41-2.817 8.232-4.02 4.217-1.007 15.66-2.818 15.66-2.818 5.018-6.64 10.642-17.704 22.89-49.283C62.23 55.59 73.27 8.92 73.27.47c1.205-.602 8.63.202 11.645 2.216" fill="#545454" mask="url(#f)"/></g><path d="M162.928 81.702c-3.212-1.81-4.617-2.012-6.023-2.012-6.224 0-11.846 5.434-18.07 14.283-6.826 9.856-11.444 22.932-13.05 32.185-1.004 6.236-.602 8.448.803 8.448 2.008 0 23.692-26.552 32.726-45.46 1.205-2.614 2.41-5.23 3.614-7.444m5.622 81.672c-5.02 0-11.043-3.824-14.054-7.445-3.413-4.024-6.425-8.852-7.228-17.9-1.004-10.263 1.807-21.125 2.008-22.13-6.024 11.264-16.263 29.77-19.676 29.77-5.622 0-11.846-3.822-14.857-8.245-3.414-5.03-2.61-15.29-1.004-23.94 2.207-11.265 6.624-23.334 15.258-34.8 7.227-9.656 15.258-12.875 20.478-12.875 4.82 0 11.846 5.23 16.062 9.857 1.205-2.612 2.008-4.828 2.61-6.638.2-.806 4.618-.605 8.03 1.81 4.017 2.818 5.82 6.235 5.82 8.85 0 2.615-2.405 5.635-7.826 16.696-5.42 11.064-13.452 31.582-13.25 45.06.2 12.27 4.014 17.3 9.837 19.713.6.2.4 2.214-2.21 2.214M227.374 81.5c-3.012-1.61-4.417-1.81-5.822-1.81-6.224 0-11.846 5.434-18.07 14.283-6.826 9.856-11.043 22.127-12.65 31.383-1.003 6.233-.6 8.446.804 8.446 2.008 0 23.29-25.748 32.325-44.657.804-1.607 2.01-4.222 3.414-7.644m-13.25-15.69c4.818 0 11.443 5.03 15.86 9.455 6.023-14.48 14.255-36.21 18.27-51.896.2-.806 3.815-.404 7.63 1.407 3.812 1.808 6.224 5.227 5.622 11.466-1.004 10.862-12.65 36.208-21.885 57.528-5.22 11.87-10.84 25.146-12.246 31.985-1.205 6.035-.803 8.65.402 9.053 1.204.402 8.633-4.024 17.668-13.277 7.63-7.844 11.042-12.873 11.645-13.88.2-.4 1.002-.2 1.002.605 0 1.408-3.413 10.058-8.633 18.707-3.414 5.633-12.65 17.903-18.874 17.903-4.216 0-10.24-4.023-13.45-6.836-3.415-3.02-4.62-8.654-4.418-12.876.2-4.427 1.003-8.25 1.204-9.255-6.023 11.264-15.86 28.965-19.274 28.965-5.622 0-11.846-3.822-14.857-8.245-3.412-5.03-2.61-15.29-1.003-23.937 2.208-11.268 6.224-22.532 14.857-33.998 7.228-9.656 15.26-12.875 20.48-12.875" fill="#545454"/><path d="M284.997 44.488c0-5.23.402-13.88 1.406-15.288 1.003-1.408 3.212-2.615 7.225-2.213 6.026.603 11.444 4.224 11.645 8.05.2 5.428-6.222 13.074-10.04 15.488-4.413 2.814-8.63 2.814-10.437 2.21-1.407-.402.2-5.026.2-8.247m-18.07 36.208c3.814-9.253 7.03-14.483 7.03-14.483 1.203-.403 7.224-.2 11.04 3.017 4.017 3.422 4.62 4.83 2.812 9.656-1.807 5.03-5.423 10.66-11.645 23.937-5.423 11.466-9.64 22.33-9.64 28.364 0 2.414.402 3.62 1.406 3.62 2.81 0 11.443-6.84 18.473-14.282 7.225-7.64 9.634-11.264 10.638-12.874.405-.4 1.208-.2 1.007.605-1.207 4.63-5.423 13.88-8.633 18.707-9.84 14.685-15.26 17.903-18.875 17.903-1.607 0-7.226-2.212-10.44-4.425-2.41-1.61-7.026-5.43-7.026-13.478 0-13.877 9.035-34.6 13.85-46.266" fill="#545454"/><path d="M309.088 110.67c2.612-1.21 5.222-2.617 8.432-4.83 8.636-6.032 13.653-11.265 16.464-17.096 3.014-6.037 4.218-10.862 2.01-10.862-2.813 0-9.637 4.02-15.26 11.264-5.02 6.435-9.034 13.68-11.646 21.524m-2.21 7.44c-.802 3.42-1.404 6.843-1.404 9.86 0 8.85 5.222 17.096 7.03 19.51 5.016 6.842 21.28 16.698 48.183 16.698 26.906 0 43.568-5.433 56.82-10.26 2.207-.803-1.808 5.028-3.613 6.838-3.014 3.02-26.1 16.296-46.18 17.705-18.87 1.41-27.105-2.615-32.124-4.226-7.83-2.414-29.915-21.12-38.345-34.396-5.223-8.25-6.628-19.716-3.215-33.797 3.215-13.074 8.834-23.534 16.466-32.383 5.62-6.44 12.244-10.058 17.465-9.856 7.028.202 18.472 10.058 20.883 14.685 3.012 5.63.603 15.688-8.033 23.938-8.03 7.644-20.278 13.075-33.93 15.688" fill="#545454"/><path d="M359.68 96.185c6.824-7.642 10.842-13.478 14.657-22.93.602-2.617 2.61-9.253 5.017-11.868 2.412 0 7.832.603 11.446 3.017 3.614 2.412 4.417 7.644 1.002 14.28-1.202 2.414-1.403 8.05-1.403 14.282 0 11.265 2.61 21.527 2.61 29.772 0 7.442-2.41 14.687-6.827 18.707-5.823 5.432-15.26 7.446-21.282 6.437-6.223-1.005-20.68-10.256-21.683-18.305-1.205-9.656 5.622-23.737 12.247-23.737 6.224 0 13.25 7.848 12.65 9.254-.603 1.408-3.013 1.408-6.024 5.23-3.815 4.63-5.02 10.058-5.02 13.477 0 2.62.402 4.027 1.607 4.832 3.413 2.01 18.47-.403 18.47-11.064 0-9.86-3.412-22.733-3.212-38.824-1.004 2.613-2.81 4.222-6.023 5.43-2.81 1.005-9.035 2.815-8.232 2.01" fill="#545454"/><g transform="translate(397.193 11.975)"><mask id="h" fill="#fff"><use xlink:href="#g"/></mask><path d="M12.68 13.806C15.893 6.363 16.294 1.133 17.5.53c1.605-.805 7.83.2 10.64 3.017 3.612 3.62 2.208 9.455.2 13.478-2.61 5.03-6.627 8.65-10.84 11.265-4.217 2.615-9.44 4.624-14.055 5.026-2.41.2-3.413-.6-3.413-1.406 0-1.61 6.224-3.62 12.648-18.104" fill="#545454" mask="url(#h)"/></g></g></svg>