<svg width="144" height="90" viewBox="0 0 144 90" xmlns="http://www.w3.org/2000/svg"><title>Waves</title><g fill="none" fill-rule="evenodd"><path d="M36.964 32.553c-9.97 0-20.34-2.735-31.315-10.268l3.993-5.81c22.74 15.605 42.52 7.833 63.466-.397 21.794-8.562 44.33-17.417 70.288.398l-3.997 5.81c-22.864-15.695-42.704-7.9-63.708.35-12.5 4.91-25.244 9.917-38.728 9.917" fill="#81CFD3"/><path d="M36.964 51.59c-9.97 0-20.34-2.736-31.315-10.27l3.993-5.808c22.74 15.604 42.52 7.832 63.466-.398 21.794-8.563 44.333-17.415 70.288.398l-3.997 5.81c-22.864-15.695-42.704-7.902-63.708.35-12.5 4.91-25.246 9.917-38.728 9.917" fill="#81CFD3"/><path d="M36.964 70.624c-9.97 0-20.34-2.735-31.315-10.268l3.993-5.81c22.74 15.606 42.52 7.832 63.466-.397 21.794-8.563 44.33-17.418 70.288.397l-3.997 5.81c-22.864-15.695-42.704-7.9-63.708.35-12.5 4.91-25.244 9.917-38.728 9.917" fill="#81CFD3"/><path d="M36.964 89.362c-9.97 0-20.34-2.735-31.315-10.268l3.993-5.81c22.74 15.605 42.52 7.833 63.466-.397 21.794-8.562 44.333-17.416 70.288.398l-3.997 5.81c-22.864-15.695-42.704-7.902-63.708.35-12.5 4.91-25.246 9.917-38.728 9.917" fill="#81CFD3"/><path d="M32.096 26.41c-9.968 0-20.34-2.736-31.315-10.268l3.995-5.81c22.74 15.606 42.522 7.832 63.466-.398 21.797-8.56 44.335-17.415 70.29.398l-3.997 5.81c-22.86-15.695-42.704-7.9-63.71.35-12.497 4.91-25.243 9.918-38.727 9.918" fill="#504F64"/><path d="M32.096 45.446c-9.968 0-20.34-2.736-31.315-10.268l3.995-5.81c22.74 15.606 42.522 7.83 63.466-.398 21.797-8.56 44.333-17.415 70.29.398l-3.997 5.81c-22.86-15.694-42.704-7.903-63.71.35-12.498 4.91-25.244 9.918-38.727 9.918" fill="#504F64"/><path d="M32.096 64.48c-9.968 0-20.34-2.735-31.315-10.267l3.995-5.81c22.74 15.606 42.522 7.83 63.466-.398 21.797-8.562 44.335-17.415 70.29.4l-3.997 5.808c-22.86-15.693-42.704-7.9-63.71.35-12.497 4.91-25.243 9.918-38.727 9.918" fill="#504F64"/><path d="M32.096 83.22c-9.968 0-20.34-2.737-31.315-10.27l3.995-5.81c22.74 15.607 42.522 7.833 63.466-.397 21.797-8.56 44.333-17.415 70.29.398l-3.997 5.81c-22.86-15.694-42.704-7.9-63.71.352-12.498 4.91-25.244 9.917-38.727 9.917" fill="#504F64"/></g></svg>