<svg width="200" height="200" viewBox="0 0 200 200" xmlns="http://www.w3.org/2000/svg"><title>Group 8</title><g fill="#F7F7F7" fill-rule="evenodd"><path d="M0 0h25v25H0zM100 0h25v25h-25zM50 0h25v25H50zM150 0h25v25h-25zM25 25h25v25H25zM125 25h25v25h-25zM75 25h25v25H75zM175 25h25v25h-25zM0 50h25v25H0zM100 50h25v25h-25zM50 50h25v25H50zM150 50h25v25h-25zM25 75h25v25H25zM125 75h25v25h-25zM75 75h25v25H75zM175 75h25v25h-25zM0 100h25v25H0zM100 100h25v25h-25zM50 100h25v25H50zM150 100h25v25h-25zM25 125h25v25H25zM125 125h25v25h-25zM75 125h25v25H75zM175 125h25v25h-25zM0 150h25v25H0zM100 150h25v25h-25zM50 150h25v25H50zM150 150h25v25h-25zM25 175h25v25H25zM125 175h25v25h-25zM75 175h25v25H75zM175 175h25v25h-25z"/></g></svg>