<svg width="35" height="38" viewBox="0 0 35 38" xmlns="http://www.w3.org/2000/svg"><title>Group 10</title><g fill="#81CFD3" fill-rule="evenodd"><path d="M17.5 1c-4.753 0-5.35.02-7.215.105-1.863.085-3.134.382-4.25.813-1.15.448-2.125 1.047-3.097 2.02-.973.973-1.572 1.948-2.02 3.098C.488 8.15.19 9.422.105 11.286.02 13.15 0 13.745 0 18.5c0 4.753.02 5.35.105 7.216.085 1.862.382 3.135.813 4.248.448 1.15 1.047 2.127 2.02 3.098.972.973 1.948 1.572 3.098 2.02 1.115.432 2.386.728 4.25.813 1.865.085 2.46.105 7.214.105 4.753 0 5.35-.02 7.215-.105 1.863-.085 3.135-.38 4.25-.813 1.15-.448 2.124-1.047 3.097-2.02.973-.97 1.572-1.948 2.02-3.098.432-1.113.728-2.386.813-4.248.085-1.867.105-2.463.105-7.216s-.02-5.35-.105-7.215c-.085-1.863-.38-3.134-.813-4.25-.448-1.15-1.047-2.124-2.02-3.097-.973-.973-1.948-1.572-3.098-2.02-1.114-.43-2.386-.728-4.25-.813C22.85 1.02 22.255 1 17.5 1m0 3.154c4.673 0 5.227.017 7.07.1 1.708.08 2.634.364 3.252.604.816.318 1.398.697 2.01 1.31.613.612.993 1.194 1.31 2.01.24.618.525 1.544.603 3.25.084 1.845.102 2.4.102 7.072 0 4.673-.018 5.227-.102 7.07-.078 1.708-.363 2.634-.603 3.252-.317.816-.697 1.398-1.31 2.01-.612.613-1.194.993-2.01 1.31-.618.24-1.544.525-3.25.603-1.845.084-2.4.102-7.072.102-4.672 0-5.227-.018-7.07-.102-1.708-.078-2.634-.363-3.25-.603-.818-.317-1.4-.697-2.013-1.31-.612-.612-.99-1.194-1.31-2.01-.24-.618-.524-1.544-.602-3.25-.084-1.845-.1-2.4-.1-7.072 0-4.672.016-5.227.1-7.07.078-1.708.363-2.634.603-3.25.318-.818.697-1.4 1.31-2.013.612-.612 1.194-.99 2.01-1.31.618-.24 1.544-.524 3.25-.602 1.845-.084 2.4-.1 7.072-.1"/><path d="M17.5 24.334c-3.22 0-5.833-2.613-5.833-5.834 0-3.22 2.612-5.833 5.833-5.833 3.22 0 5.833 2.612 5.833 5.833 0 3.22-2.612 5.834-5.833 5.834m0-14.82c-4.963 0-8.987 4.023-8.987 8.986 0 4.963 4.024 8.987 8.987 8.987s8.987-4.024 8.987-8.987-4.024-8.987-8.987-8.987M28.942 9.16c0 1.158-.94 2.1-2.1 2.1-1.16 0-2.1-.942-2.1-2.1 0-1.16.94-2.1 2.1-2.1 1.16 0 2.1.94 2.1 2.1"/></g></svg>