<svg width="42" height="38" viewBox="0 0 42 38" xmlns="http://www.w3.org/2000/svg"><title>Fill 1</title><path d="M42 5.348c-1.554.75-3.206 1.236-4.956 1.46 1.784-1.148 3.153-2.957 3.8-5.124-1.668 1.058-3.514 1.814-5.483 2.257C33.797 2.13 31.55 1 29.078 1c-4.76 0-8.617 4.15-8.617 9.278 0 .72.075 1.433.217 2.103C13.53 12.014 7.17 8.306 2.92 2.704 2.18 4.07 1.756 5.66 1.756 7.367c0 3.21 1.52 6.067 3.836 7.706-1.415-.057-2.745-.452-3.905-1.153v.126c0 4.487 2.97 8.23 6.91 9.097-.72.21-1.485.307-2.276.307-.553 0-1.08-.04-1.61-.165 1.09 3.698 4.277 6.385 8.046 6.44-2.95 2.5-6.664 3.97-10.7 3.97-.7 0-1.386-.042-2.058-.13 3.812 2.644 8.333 4.184 13.21 4.184 15.847 0 24.52-14.14 24.52-26.398 0-.392-.01-.79-.03-1.187 1.68-1.324 3.145-2.96 4.3-4.817" fill="#81CFD3" fill-rule="evenodd"/></svg>