<svg width="63" height="61" viewBox="0 0 63 61" xmlns="http://www.w3.org/2000/svg"><title>Imported Layers</title><g fill="#191718" fill-rule="evenodd"><path d="M46.918 42.428h-1.04c-.588 0-.714.16-.714.818v6.273c0 .33.14.636.6.636h1.44c1.06 0 1.894-.422 2.566-1.16.662-.73 1-1.63 1-2.664 0-1.056-.35-1.97-1.038-2.732-.69-.755-1.61-1.172-2.814-1.172"/><path d="M12.697 42.413v-.863h4.7v.863h-.855c-.335 0-.575.25-.575.645v6.41c0 .464.164.795.702.795h1.957c1.334 0 1.65-.546 2.256-1.562l.365-.71.87.365-1.145 2.77h-8.276v-.862h.717c.41 0 .584-.33.584-.837V43.05c0-.378-.023-.637-.546-.637h-.755m29.2.015v-.917h5.358c1.66 0 3.042.43 4.104 1.272 1.08.854 1.623 1.97 1.623 3.318 0 1.385-.49 2.576-1.46 3.548s-2.263 1.47-3.838 1.47h-5.808v-.962H42.58c.23 0 .627-.025.627-.65V43.06c0-.535-.273-.632-.663-.632h-.646m-14.573 2.124l-.896-.295 1.005-2.753h8.976l.985 2.724-.89.295-.28-.434c-.66-1.04-1.072-1.69-2.662-1.69h-.358c-.19 0-.266.078-.266.228v6.824c0 .213.028.328.048.39l.187.22.28.138.464.036h.602v.883H29.44v-.863h.657l.42-.038.242-.146.145-.22.04-.3v-6.92s.027-.234-.247-.234h-1.022c-1.196 0-1.592.89-2.062 1.674l-.29.478m-14.15-20.387l-1.655-.318v-13.03h13.7c.374 0 .64-.062.802-.186.158-.127.336-.34.546-.636l.312-.478h1.516l-.818 4.244h-13.73v7.29c.75-.582 1.712-1.107 2.888-1.582 1.18-.472 2.397-.71 3.65-.71 2.88 0 5.512.65 7.45 2.097 1.768 1.33 3.126 3.34 3.126 5.82 0 2.75-1.03 4.993-3.085 6.728-2.055 1.737-4.863 2.61-8.42 2.61-2.388 0-4.568-.494-6.534-1.482-1.96-.984-2.943-2.297-2.943-3.935 0-.563.196-1.162.636-1.642.443-.48 1.016-.645 1.67-.645.637 0 1.178.195 1.62.586.44.39.66.862.66 1.425 0 .317-.067.69-.204 1.118-.14.432-.208.713-.208.845 0 .6.533 1.11 1.6 1.54 1.062.43 2.154.647 3.282.647 2.317 0 4.126-.67 5.428-2.012 1.295-1.34 1.946-2.993 1.946-4.945 0-1.84-.565-3.422-1.7-4.746-1.13-1.326-2.777-1.988-4.947-1.988-1.532 0-2.824.293-3.87.874-1.044.578-1.952 1.415-2.72 2.51m22.772-4.48c-.156 0-.312-.013-.464-.04-.78-.13-1.213-.473-1.677-1.09-.347-.466-.584-1.365-.628-2.012-.13-2.064 1.012-3.763 3.038-5.082 2.028-1.324 4.364-1.982 7.007-1.982 2.796 0 5.19.67 7.19 2.007 2 1.336 2.994 3.1 2.994 5.285 0 1.513-.567 3.052-1.71 4.617-1.14 1.56-2.126 2.74-4.09 4.287-6.26 4.938-10.424 6.614-10.424 6.614h11.976c1.814 0 2.357-.127 3.588-2.762l1.537.356-1.388 5.062H32.937v-2.59l5.413-3.024c10.465-6.436 10.585-11.394 10.62-12.727.03-1.334-.452-2.856-1.375-3.82-.835-.872-2.1-1.524-4.417-1.524-1.052 0-2.566.107-4.115.794-1.33.586-2.228 1.38-2.27 2.332-.01.19.02.438.042.602.052.266.23.652.69 1.206.456.555.665 1.008.684 1.36.03.637-.18 1.124-.566 1.526-.352.37-1.024.603-1.7.603M57.103.273H6.198C3.274.272.904 2.642.904 5.564v50.02c0 2.923 2.37 5.293 5.294 5.293h50.904c2.922 0 5.293-2.37 5.293-5.294V5.564c0-2.92-2.37-5.292-5.293-5.292"/></g></svg>