<svg width="156" height="29" viewBox="0 0 156 29" xmlns="http://www.w3.org/2000/svg"><title>Imported Layers</title><g fill="#191718" fill-rule="evenodd"><path d="M59.288 13.312V4.005h3.13c1.443 0 2.047.843 2.047 2.247v4.452c0 1.685-.885 2.608-2.37 2.608H59.29M62.458.996h-6.54v26.72h3.37V16h3.01c1.563 0 2.286 1.043 2.286 2.65v3.16c0 2.67.158 4.363.487 5.906h3.646c-.538-1.482-.802-3.046-.802-5.986v-2.882c0-1.925-.883-3.73-2.968-4.172 2.127-.52 2.848-1.965 2.848-4.254v-4.05c0-3.69-1.925-5.376-5.337-5.376M.45.996h3.37v26.718H.45V.996zM21.922.996h-3.17v18.012l-1.643-4.532L11.85.996H9.004v26.72h3.17V9.943l1.765 4.493 5.575 13.28h2.407V.996M32.376.514c-3.972 0-6.06 2.728-6.06 6.3 0 3.488 2.69 6.578 5.135 8.745 2.73 2.447 3.734 4.25 3.734 6.74 0 1.843-.963 3.087-2.93 3.087-1.885 0-2.928-1.282-2.928-3.53v-2.084h-3.29v2.446c0 3.488 2.447 5.977 6.218 5.977 3.33 0 6.217-2.167 6.217-6.5 0-3.25-1.602-5.777-4.692-8.547-3.128-2.848-4.17-4.37-4.17-6.978 0-1.685.923-2.728 2.686-2.728 1.965 0 2.85 1.404 2.85 3.45V9.02h3.17V6.532c0-3.53-2.33-6.018-5.938-6.018M52.873.996H40.556v3.09h4.534v23.63h3.33V4.086h4.453V.995M85.184.996h-3.29v21.142c0 2.005-.924 3.05-2.93 3.05-1.966 0-2.927-1.045-2.927-3.05V.996h-3.33v21.062c0 3.85 2.607 6.14 6.218 6.14 3.65 0 6.26-2.29 6.26-6.14V.996M107.456.996h-4.65l-2.973 16.568-.84 4.895-.884-4.854L95.1.996h-4.736v26.72h2.968v-20.5l.885 4.852 3.048 15.648h3.21l3.048-15.648.882-4.853v20.5h3.048V.996M123.11.996h-10.47v26.72h10.47v-3.05h-7.14V15.28h5.538v-2.93h-5.538V4.044h7.14V.995M140.144.996h-3.17v18.012l-1.643-4.532-5.256-13.48h-2.85v26.72h3.172V9.943l1.763 4.493 5.577 13.28h2.407V.996M155.506.996H143.19v3.09h4.533v23.63h3.33V4.086h4.453V.995"/></g></svg>