<svg width="148" height="29" viewBox="0 0 148 29" xmlns="http://www.w3.org/2000/svg"><title>Imported Layers 2</title><g fill="#191718" fill-rule="evenodd"><path d="M23.143 1.24V3.6c-2.5-2.317-5.81-3.445-10.106-3.445-6.96 0-11.455 3.497-11.455 8.91 0 5.94 4.833 7.508 9.56 8.26.44.07.867.13 1.283.193 2.903.425 5.196.76 5.196 2.4 0 1.37-1.945 2.108-3.777 2.108-3.16 0-5.482-1.216-6.904-3.614l-.08-.134-6.667 3.27.086.148c2.614 4.492 7.02 6.77 13.097 6.77 8.587 0 12.43-4.66 12.43-9.276 0-6.004-5.472-7.634-11.387-8.502-3.094-.452-4.567-.9-4.567-2.23 0-1.285 1.69-1.742 3.27-1.742 2.263 0 4.378.898 5.516 2.343l.084.107L23.144 7v1.364h7.68v19.402h8.243V8.364h7.722V1.24H23.142M137.724 11.942l9.53-10.72h-9.987l-8.314 10.117V1.22h-8.244v4.753C117.967 2.43 114.03.558 109.292.558c-6.29 0-11.247 3.272-13.185 8.615V1.24h-8.244V17.7c0 2.68-1.45 3.982-4.434 3.982-3.025 0-4.434-1.266-4.434-3.983V1.24H70.71v5.105c-1.55-3.258-5.092-5.106-9.863-5.106h-13.43v26.524h8.2v-7.97h3.313l3.03 7.98h9.54l-4.454-9.607c1.66-.956 2.912-2.28 3.663-3.87v3.402c0 7.108 4.636 11.186 12.72 11.186 7.237 0 11.762-3.36 12.55-9.26 1.84 5.613 6.865 9.06 13.313 9.06 4.847 0 8.685-1.893 11.416-5.63v4.705h8.243v-5.963l2.857-3.78 5.916 9.744h10.106l-10.108-15.818zm-77.128 1.57h-4.978V8.365h4.978c1.478 0 2.51 1.075 2.51 2.615 0 1.49-1.032 2.533-2.51 2.533zM120.71 8.84v11.004L115 17.71c-1.345 2.856-3.046 4.135-5.502 4.135-3.54 0-6.012-2.994-6.012-7.282 0-4.217 2.472-7.162 6.012-7.162 2.396 0 4.13 1.106 5.546 3.556l5.665-2.117z"/></g></svg>